<svg width="57" height="49" viewBox="0 0 57 49" fill="none" xmlns="http://www.w3.org/2000/svg">
<path fill-rule="evenodd" clip-rule="evenodd" d="M28.5903 0.121877V1.58655H20.3509V20.4442H36.4688V10.1915H38.1528V21.9088H18.6669V0.121877H28.5903Z" fill="white" style="fill:white;fill-opacity:1;"/>
<path fill-rule="evenodd" clip-rule="evenodd" d="M22.8166 18.0643C22.6362 18.1253 22.3354 18.1253 22.155 18.0643C21.9746 18.0032 21.9746 17.8812 22.0347 17.6981C22.0347 17.515 22.0949 17.2709 22.3354 16.9047C22.5159 16.5996 22.8767 16.1724 23.1774 15.7452C23.4781 15.318 23.839 14.8908 24.0194 14.6467C24.26 14.3415 24.3201 14.2195 24.3803 14.1585C24.4404 14.0974 24.4404 14.0364 24.4404 13.9754C24.4404 13.9144 24.3803 13.8533 24.3803 13.7313C24.3201 13.6092 24.26 13.5482 24.1998 13.4261C24.1397 13.3041 24.0194 13.121 23.9593 12.9379C23.8991 12.7548 23.7788 12.5717 23.7187 12.3887C23.6586 12.2056 23.5984 12.0225 23.5984 11.9004C23.5383 11.7174 23.5383 11.5953 23.4781 11.3512C23.418 11.1681 23.418 10.924 23.3579 10.7409C23.2977 10.4968 23.2977 10.3137 23.2977 10.1306C23.2977 9.88652 23.2977 9.70343 23.2977 9.45932C23.2977 9.21521 23.3579 8.91007 23.418 8.72699C23.4781 8.5439 23.4781 8.36082 23.4781 8.23876C23.4781 8.11671 23.5383 7.99465 23.5984 7.8726C23.6586 7.75054 23.7187 7.56746 23.839 7.38437C23.9593 7.14026 24.1397 6.83512 24.26 6.59101C24.4404 6.3469 24.5607 6.10279 24.7411 5.85868C24.9215 5.61456 25.102 5.37045 25.2824 5.12634C25.5229 4.88223 25.7635 4.57709 26.0041 4.33298C26.2446 4.08887 26.5454 3.78373 26.8461 3.60064C27.1468 3.35653 27.4475 3.11242 27.7482 2.92934C28.0489 2.68523 28.4097 2.50214 28.8307 2.25803C29.2517 2.01392 29.793 1.76981 30.3343 1.5257C30.8755 1.28159 31.477 1.0985 32.0182 0.915418C32.6196 0.732334 33.2211 0.54925 33.7022 0.488223C34.1833 0.366167 34.5442 0.305139 35.0855 0.244111C35.6267 0.183083 36.3484 0.122055 36.8897 0.122055C37.431 0.122055 37.7317 0.0610281 37.9722 0.0610281C38.1527 0.0610281 38.273 0 38.3331 0C38.273 0.244111 38.2128 0.427194 38.1527 0.732334C38.0925 1.03747 38.0925 1.34261 38.0925 1.83084C38.0925 2.31906 38.0324 2.92934 38.0324 3.41756C37.9722 3.90578 37.9722 4.33298 37.9121 4.76017C37.852 5.18737 37.7918 5.67559 37.7317 6.16382C37.6715 6.59101 37.5513 7.07923 37.431 7.50643C37.3107 7.93362 37.1904 8.36082 37.1303 8.66596C37.01 9.03212 36.9498 9.27624 36.8296 9.58138C36.7093 9.88651 36.5289 10.3137 36.4086 10.6799C36.2281 11.046 36.1079 11.3512 35.8673 11.7174C35.6869 12.0835 35.4463 12.3887 35.2057 12.7548C34.9652 13.121 34.7246 13.4872 34.484 13.7923C34.2435 14.0974 34.063 14.3415 33.8225 14.5857C33.5819 14.8298 33.2812 15.0739 32.9805 15.318C32.6798 15.5621 32.3791 15.7452 32.0784 15.9283C31.7777 16.1114 31.477 16.2944 31.1763 16.4165C30.8755 16.5386 30.5147 16.6606 30.214 16.7827C29.9133 16.8437 29.6727 16.9047 29.4321 16.9657C29.1916 16.9657 28.951 16.9657 28.6503 16.9657C28.3496 16.9047 27.9888 16.9047 27.6279 16.7827C27.2671 16.7216 26.9663 16.5996 26.7258 16.4775C26.4852 16.3555 26.3048 16.2334 26.1244 16.1114C25.9439 15.9893 25.8237 15.8672 25.7034 15.8062C25.5831 15.7452 25.5831 15.7452 25.5229 15.7452C25.4628 15.7452 25.4628 15.7452 25.4027 15.7452C25.3425 15.7452 25.3425 15.8062 25.2824 15.8062C25.2222 15.8672 25.1621 15.9283 25.0418 16.0503C24.9215 16.1724 24.7411 16.3555 24.5005 16.5996C24.26 16.8437 24.0194 17.0878 23.7788 17.3319C23.5383 17.576 23.2977 17.8201 23.1173 18.0032C23.0571 17.9422 22.997 18.0643 22.8166 18.0643Z" fill="#7BBA39" style="fill:#7BBA39;fill:color(display-p3 0.4824 0.7294 0.2235);fill-opacity:1;"/>
<path fill-rule="evenodd" clip-rule="evenodd" d="M25.7034 12.3277C25.523 12.2667 25.3426 12.0836 25.2223 11.9005C25.102 11.7174 24.9817 11.4733 24.9216 11.1682C24.8614 10.924 24.9216 10.5579 24.9216 10.2527C24.9817 9.9476 24.9817 9.58144 25.102 9.21527C25.2223 8.8491 25.3426 8.48293 25.523 8.11677C25.7034 7.7506 25.8838 7.44546 26.0643 7.07929C26.3048 6.71313 26.5454 6.40799 26.786 6.04182C27.0867 5.67565 27.3874 5.30948 27.7482 5.00434C28.1091 4.6992 28.5301 4.39407 28.9511 4.08893C29.3721 3.78379 29.9133 3.47865 30.3945 3.23454C30.8756 2.99042 31.2966 2.74631 31.7176 2.56323C32.1386 2.38015 32.6197 2.25809 33.0407 2.13603C33.4617 2.01398 33.8827 1.95295 34.3037 1.95295C34.7246 1.89192 35.1456 1.89192 35.5065 1.89192C35.8673 1.89192 36.1079 1.89192 36.2282 2.07501C36.3485 2.25809 36.3485 2.56323 36.3485 3.05145C36.3485 3.47865 36.3485 4.0279 36.3485 4.45509C36.3485 4.88229 36.2883 5.30948 36.2883 5.67565C36.2282 6.04182 36.168 6.34696 36.1079 6.71313C36.0478 7.07929 35.9275 7.44546 35.7471 7.87265C35.5666 8.29985 35.3862 8.72705 35.2058 9.21527C35.0254 9.64246 34.7848 10.1307 34.5442 10.6189C34.3037 11.1071 34.0631 11.5954 33.7624 12.0225C33.5218 12.4497 33.2211 12.8159 32.9204 13.1211C32.6197 13.4262 32.3791 13.6703 32.0784 13.9144C31.7777 14.1585 31.477 14.4026 31.1763 14.5857C30.8154 14.7688 30.4546 14.9519 30.0937 15.0129C29.7329 15.135 29.3721 15.135 28.9511 15.135C28.5902 15.135 28.1692 15.0129 27.8685 14.8909C27.5678 14.7688 27.3272 14.5857 27.207 14.4026C27.0867 14.2196 27.0867 13.9754 27.1468 13.7313C27.207 13.4872 27.3874 13.3041 27.5678 13.1211C27.7482 12.938 27.9888 12.7549 28.2294 12.6328C28.4699 12.5108 28.7105 12.4497 29.0112 12.4497C29.2518 12.4497 29.4923 12.4497 29.7329 12.5108C29.9735 12.5718 30.2742 12.6328 30.5147 12.6939C30.7553 12.7549 30.9959 12.8769 31.2364 12.938C31.477 12.999 31.6574 12.999 31.7176 12.938C31.8379 12.8769 31.898 12.7549 31.898 12.5718C31.9581 12.3887 31.9581 12.0836 31.9581 11.9005C31.9581 11.7174 31.898 11.6564 31.7176 11.5954C31.5371 11.5343 31.2364 11.5343 30.9357 11.5343C30.635 11.5343 30.3343 11.4733 30.214 11.4123C30.0336 11.3512 30.0336 11.1682 30.0336 10.9851C30.0336 10.802 30.0938 10.5579 30.214 10.3748C30.3343 10.1917 30.5147 9.9476 30.7553 9.76452C30.9357 9.58143 31.1763 9.45938 31.3567 9.39835C31.5371 9.33732 31.7176 9.33732 31.9581 9.33732C32.1987 9.39835 32.4994 9.45938 32.6798 9.45938C32.9204 9.52041 33.1008 9.52041 33.2211 9.45938C33.3414 9.39835 33.4617 9.21527 33.5218 9.09321C33.582 8.97116 33.6421 8.78807 33.582 8.60499C33.5218 8.42191 33.3414 8.23882 33.2211 8.05574C33.1008 7.87265 33.0407 7.81163 33.1008 7.62854C33.1008 7.50649 33.2211 7.3234 33.3414 7.14032C33.4617 6.95724 33.6421 6.77415 33.8225 6.59107C34.0029 6.34696 34.2435 6.10285 34.3638 5.85874C34.4841 5.61462 34.6044 5.49257 34.6044 5.24846C34.6645 5.06537 34.6044 4.82126 34.6044 4.63818C34.6044 4.45509 34.5442 4.33304 34.4239 4.21098C34.3037 4.08893 34.1834 4.0279 34.0631 3.96687C33.9428 3.90584 33.7624 3.84482 33.6421 3.90584C33.4617 3.96687 33.3414 4.0279 33.1008 4.21098C32.9204 4.39407 32.74 4.57715 32.5596 4.82126C32.3791 5.06537 32.2589 5.30948 32.1386 5.5536C32.0183 5.79771 31.9581 5.98079 31.8379 6.10285C31.7777 6.2249 31.6574 6.2249 31.5371 6.16387C31.4169 6.10285 31.2966 5.91976 31.1162 5.73668C30.9357 5.5536 30.7553 5.43154 30.5749 5.37051C30.3945 5.30948 30.2742 5.24846 30.1539 5.30948C30.0336 5.30948 29.8532 5.43154 29.793 5.5536C29.7329 5.67565 29.6728 5.91976 29.6728 6.04182C29.6728 6.2249 29.6126 6.34696 29.6728 6.59107C29.6728 6.77415 29.7329 7.01826 29.793 7.3234C29.8532 7.62854 29.9133 7.93368 29.9133 8.17779C29.9133 8.42191 29.8532 8.54396 29.793 8.66602C29.6728 8.78807 29.4923 8.91013 29.3119 9.03219C29.1315 9.09321 29.0112 9.15424 28.8909 9.15424C28.7706 9.09321 28.6504 8.97116 28.5301 8.72705C28.4098 8.48293 28.2895 8.11677 28.1692 7.81163C28.0489 7.50649 27.9287 7.26238 27.8084 7.14032C27.6881 7.01826 27.5678 6.95724 27.4475 6.89621C27.3272 6.89621 27.1468 6.89621 27.0867 7.01826C26.9664 7.07929 26.9062 7.26238 26.8461 7.44546C26.786 7.62854 26.786 7.93368 26.786 8.17779C26.786 8.42191 26.786 8.66602 26.8461 8.91013C26.9062 9.15424 27.0265 9.39835 27.0867 9.58143C27.207 9.82555 27.2671 10.0086 27.3874 10.1917C27.4475 10.3748 27.5077 10.5579 27.4475 10.741C27.4475 10.924 27.3272 11.1071 27.207 11.2902C27.0867 11.4733 26.9062 11.6564 26.7258 11.8395C26.5454 12.0225 26.365 12.1446 26.1845 12.2667C26.0643 12.2667 25.8838 12.3887 25.7034 12.3277Z" fill="#273F2B" style="fill:#273F2B;fill:color(display-p3 0.1529 0.2471 0.1686);fill-opacity:1;"/>
<path d="M3.95533 27.6632H5.93648L9.88484 38.076H7.85485L7.05263 35.9312H2.86709L2.02998 38.076H0L3.95533 27.6632ZM4.95986 30.4239L3.59258 33.9987H6.32016L4.95986 30.4239Z" fill="white" style="fill:white;fill-opacity:1;"/>
<path d="M20.8788 29.3621L19.5046 30.7425C18.6349 29.8081 17.6211 29.3409 16.4631 29.3409C15.4539 29.3409 14.6075 29.6807 13.9239 30.3602C13.2449 31.0398 12.9054 31.8656 12.9054 32.8378C12.9054 33.8429 13.2588 34.6948 13.9657 35.3932C14.6726 36.0916 15.5446 36.4408 16.5817 36.4408C17.256 36.4408 17.8234 36.2969 18.2838 36.009C18.7489 35.7212 19.1232 35.2705 19.4069 34.657H16.4352V32.7953H21.5974L21.6113 33.2342C21.6113 34.145 21.3788 35.0086 20.9137 35.825C20.4487 36.6414 19.8464 37.2643 19.107 37.6938C18.3675 38.1232 17.5002 38.3379 16.505 38.3379C15.44 38.3379 14.4889 38.1043 13.6518 37.6371C12.8194 37.1652 12.159 36.4951 11.6707 35.6268C11.187 34.7585 10.9452 33.8217 10.9452 32.8165C10.9452 31.4386 11.394 30.2399 12.2915 29.2206C13.3565 28.0077 14.7424 27.4013 16.4492 27.4013C17.3421 27.4013 18.1768 27.5689 18.9535 27.9039C19.6092 28.1871 20.251 28.6731 20.8788 29.3621Z" fill="white" style="fill:white;fill-opacity:1;"/>
<path d="M23.5367 27.6632H25.6085C26.7432 27.6632 27.5501 27.7671 28.0291 27.9747C28.5128 28.1776 28.9011 28.5174 29.1941 28.994C29.4871 29.4707 29.6336 30.0346 29.6336 30.6859C29.6336 31.3701 29.4708 31.9435 29.1453 32.406C28.8244 32.8637 28.3384 33.2106 27.6873 33.4465L30.1149 38.076H27.9803L25.6713 33.666H25.4899V38.076H23.5367V27.6632ZM25.4899 31.7335H26.1038C26.727 31.7335 27.1548 31.6509 27.3873 31.4857C27.6245 31.3206 27.7431 31.0469 27.7431 30.6646C27.7431 30.4381 27.685 30.2423 27.5687 30.0771C27.4525 29.9072 27.2967 29.7869 27.1013 29.7161C26.906 29.6406 26.5479 29.6028 26.027 29.6028H25.4899V31.7335Z" fill="white" style="fill:white;fill-opacity:1;"/>
<path d="M31.552 27.6632H33.4912V38.076H31.552V27.6632Z" fill="white" style="fill:white;fill-opacity:1;"/>
<path d="M45.127 29.4966L43.7598 30.8203C42.8296 29.8246 41.7833 29.3267 40.6206 29.3267C39.6393 29.3267 38.8115 29.6665 38.1372 30.3461C37.4675 31.0256 37.1327 31.8633 37.1327 32.859C37.1327 33.5527 37.2815 34.1686 37.5791 34.7066C37.8768 35.2445 38.2976 35.6669 38.8418 35.9736C39.3859 36.2804 39.9905 36.4338 40.6555 36.4338C41.2229 36.4338 41.7414 36.3276 42.2111 36.1152C42.6808 35.8981 43.197 35.5064 43.7598 34.9401L45.0852 36.3417C44.3271 37.0921 43.6109 37.6135 42.9366 37.9061C42.2623 38.194 41.4926 38.3379 40.6276 38.3379C39.0324 38.3379 37.7256 37.8259 36.7071 36.8018C35.6933 35.7731 35.1864 34.4564 35.1864 32.8519C35.1864 31.8137 35.4166 30.8911 35.877 30.0842C36.3421 29.2772 37.0048 28.6283 37.8651 28.1375C38.7301 27.6467 39.6603 27.4013 40.6555 27.4013C41.5019 27.4013 42.3158 27.583 43.0971 27.9464C43.883 28.3098 44.5597 28.8265 45.127 29.4966Z" fill="white" style="fill:white;fill-opacity:1;"/>
<path d="M51.6913 27.4013C53.1423 27.4013 54.3887 27.9346 55.4304 29.0011C56.4768 30.0676 57 31.3678 57 32.9015C57 34.421 56.4838 35.707 55.4514 36.7594C54.4236 37.8117 53.1749 38.3379 51.7053 38.3379C50.166 38.3379 48.887 37.7976 47.8686 36.7169C46.8501 35.6362 46.3408 34.3526 46.3408 32.8661C46.3408 31.8704 46.578 30.9548 47.0524 30.1196C47.5267 29.2843 48.1778 28.6236 49.0056 28.1375C49.8381 27.6467 50.7333 27.4013 51.6913 27.4013ZM51.6704 29.3409C50.7217 29.3409 49.9241 29.676 49.2777 30.3461C48.6313 31.0162 48.308 31.868 48.308 32.9015C48.308 34.053 48.715 34.9637 49.5288 35.6339C50.1613 36.1577 50.8868 36.4196 51.7053 36.4196C52.6308 36.4196 53.419 36.0798 54.0701 35.4003C54.7212 34.7207 55.0467 33.8831 55.0467 32.8873C55.0467 31.8963 54.7189 31.0587 54.0631 30.3744C53.4074 29.6854 52.6098 29.3409 51.6704 29.3409Z" fill="white" style="fill:white;fill-opacity:1;"/>
<path fill-rule="evenodd" clip-rule="evenodd" d="M46.328 48.8169H45.8469V45.3994H46.6287C46.8693 45.3994 47.0497 45.3994 47.17 45.4604C47.2903 45.4604 47.4106 45.5214 47.4707 45.5824C47.591 45.6435 47.6511 45.7655 47.7113 45.8876C47.7714 46.0096 47.7714 46.1927 47.7714 46.3148C47.7714 46.4979 47.7714 46.6199 47.7113 46.742C47.6511 46.864 47.591 46.9861 47.4707 47.0471C47.4106 47.1081 47.2903 47.1692 47.17 47.1692C47.0497 47.1692 46.8693 47.2302 46.6287 47.2302H46.328V48.8169ZM46.5084 46.864C46.8092 46.864 46.9896 46.803 47.1099 46.742C47.2301 46.6809 47.2301 46.5589 47.2301 46.3758C47.2301 46.1927 47.17 46.0707 47.0497 46.0096C46.9294 45.9486 46.749 45.8876 46.4483 45.8876H46.328V46.864H46.5084ZM37.4271 45.3994V47.4743C37.4271 47.7794 37.4872 48.0236 37.6075 48.1456C37.7278 48.3287 37.9683 48.3897 38.2089 48.3897C38.4495 48.3897 38.69 48.3287 38.8103 48.1456C38.9306 47.9625 38.9908 47.7794 38.9908 47.4743V45.3994H39.532V47.5353C39.532 48.0236 39.4117 48.3287 39.1712 48.5728C38.9306 48.8169 38.6299 48.939 38.1488 48.939C37.6676 48.939 37.3669 48.8169 37.1264 48.5728C36.8858 48.3287 36.7655 48.0236 36.7655 47.5353V45.3994H37.4271ZM30.7514 47.1692C30.7514 47.4133 30.6912 47.6574 30.6311 47.8405C30.5709 48.0846 30.3905 48.2677 30.2702 48.4507C30.0898 48.6338 29.9094 48.7559 29.729 48.8169C29.4884 48.8779 29.308 48.939 29.0674 48.939C28.8268 48.939 28.5863 48.8779 28.4058 48.8169C28.1653 48.6949 27.9849 48.5728 27.8646 48.4507C27.6841 48.2677 27.5639 48.0846 27.5037 47.9015C27.4436 47.6574 27.3834 47.4743 27.3834 47.2302C27.3834 46.9861 27.4436 46.742 27.5037 46.5589C27.5639 46.3148 27.7443 46.1317 27.8646 45.9486C28.045 45.7655 28.2254 45.6435 28.4058 45.5824C28.6464 45.5214 28.8268 45.4604 29.0674 45.4604C29.308 45.4604 29.5485 45.5214 29.729 45.5824C29.9695 45.6435 30.1499 45.8266 30.2702 45.9486C30.4507 46.1317 30.5709 46.3148 30.6311 46.5589C30.6912 46.6809 30.7514 46.9251 30.7514 47.1692ZM30.2101 47.1692C30.2101 46.9861 30.1499 46.803 30.0898 46.6809C30.0297 46.4979 29.9695 46.3758 29.8492 46.2537C29.729 46.1317 29.6087 46.0707 29.4884 45.9486C29.3681 45.8876 29.1877 45.8266 29.0073 45.8266C28.8268 45.8266 28.7066 45.8876 28.5261 45.9486C28.4058 46.0096 28.2254 46.1317 28.1653 46.2537C28.045 46.3758 27.9849 46.4979 27.9247 46.6809C27.8646 46.864 27.8646 46.9861 27.8646 47.1692C27.8646 47.3522 27.8646 47.5353 27.9247 47.6574C27.9849 47.8405 28.045 47.9625 28.1653 48.0846C28.2856 48.2066 28.4058 48.3287 28.5261 48.3897C28.6464 48.4507 28.8268 48.5118 29.0073 48.5118C29.1877 48.5118 29.308 48.4507 29.4884 48.3897C29.6087 48.3287 29.7891 48.2066 29.8492 48.0846C29.9695 47.9625 30.0297 47.8405 30.0898 47.6574C30.1499 47.4743 30.2101 47.3522 30.2101 47.1692ZM19.8056 47.3522V48.8779H19.2643V45.4604H19.986C20.2266 45.4604 20.3469 45.4604 20.4672 45.5214C20.5874 45.5214 20.7077 45.5824 20.7679 45.6435C20.8881 45.7045 20.9483 45.8266 21.0084 45.9486C21.0686 46.0707 21.0686 46.2537 21.0686 46.3758C21.0686 46.6809 21.0084 46.864 20.8881 47.0471C20.7679 47.2302 20.5874 47.2912 20.3469 47.3522L21.4896 48.939H20.8881L19.8056 47.3522ZM19.8056 46.864H19.9259C20.2266 46.864 20.407 46.803 20.4672 46.742C20.5874 46.6809 20.5874 46.5589 20.5874 46.3758C20.5874 46.1927 20.5273 46.0707 20.4672 45.9486C20.3469 45.8876 20.1665 45.8266 19.9259 45.8266H19.8056V46.864ZM11.8669 47.1081H13.19C13.19 47.1081 13.19 47.1692 13.19 47.2302C13.19 47.3522 13.19 47.4133 13.19 47.4743C13.19 47.9625 13.0697 48.3287 12.769 48.5728C12.5285 48.8169 12.1075 49 11.6264 49C11.3858 49 11.1452 48.939 10.9047 48.8779C10.7242 48.8169 10.4837 48.6949 10.3634 48.5118C10.183 48.3287 10.0627 48.1456 10.0025 47.9015C9.94239 47.6574 9.88225 47.4133 9.88225 47.1692C9.88225 46.9251 9.94239 46.6809 10.0025 46.4368C10.0627 46.1927 10.183 46.0096 10.3634 45.8876C10.5438 45.7045 10.7242 45.5824 10.9047 45.5214C11.1452 45.4604 11.3256 45.3994 11.5662 45.3994C11.8068 45.3994 12.0473 45.4604 12.2879 45.5214C12.4683 45.6435 12.6488 45.7655 12.8292 45.9486L12.4683 46.2537C12.348 46.1317 12.2278 46.0096 12.1075 45.9486C11.9872 45.8876 11.8669 45.8876 11.6865 45.8876C11.3256 45.8876 11.0249 46.0096 10.8445 46.2537C10.6039 46.4979 10.4837 46.803 10.4837 47.1692C10.4837 47.5353 10.6039 47.9015 10.8445 48.0846C11.0851 48.3287 11.3858 48.4507 11.7466 48.4507C12.0473 48.4507 12.2879 48.3897 12.4683 48.2066C12.6488 48.0846 12.7089 47.8405 12.7089 47.5964V47.5353H11.9271V47.1081H11.8669Z" fill="white" style="fill:white;fill-opacity:1;"/>
</svg>
