<svg width="188" height="21" viewBox="0 0 188 21" fill="none" xmlns="http://www.w3.org/2000/svg">
<path d="M18.6293 5.21513C18.1974 4.43425 17.6725 3.72309 17.0613 3.08166C16.4501 2.4472 15.7724 1.8964 15.035 1.43624C14.2975 0.976081 13.5002 0.627476 12.6498 0.37648C11.7994 0.132456 10.9158 0.00695801 9.99894 0.00695801C9.07545 0.00695801 8.18518 0.132456 7.33477 0.383452C6.48436 0.634448 5.68711 0.990026 4.943 1.44321C4.19889 1.8964 3.52787 2.4472 2.91663 3.08863C2.31205 3.73007 1.78719 4.44122 1.34869 5.2221C0.910203 6.00297 0.578012 6.83963 0.338835 7.73206C0.119589 8.62449 0 9.55178 0 10.5139C0 11.4831 0.119589 12.4173 0.352122 13.3097C0.584656 14.2022 0.92349 15.0388 1.35534 15.8127C1.78719 16.5866 2.3054 17.2908 2.91663 17.9323C3.52122 18.5667 4.19889 19.1175 4.943 19.5777C5.68711 20.0378 6.47772 20.3864 7.32813 20.6374C8.17189 20.8815 9.06216 21.007 9.98565 21.007C10.9091 21.007 11.7994 20.8815 12.6565 20.6374C13.5135 20.3934 14.3108 20.0378 15.0549 19.5846C15.799 19.1315 16.47 18.5876 17.0812 17.9462C17.6858 17.3117 18.2107 16.6006 18.6492 15.8267C19.0877 15.0528 19.4199 14.2161 19.659 13.3237C19.8916 12.4313 20.0112 11.504 20.0112 10.5418C20.0112 9.57269 19.8916 8.63843 19.6524 7.73903C19.3999 6.83963 19.0611 6.00297 18.6293 5.21513ZM17.1012 13.6723C16.6959 14.6554 16.1445 15.5199 15.4535 16.2589C14.7626 16.998 13.9454 17.5767 13.0019 17.995C12.0652 18.4133 11.0686 18.6295 10.0122 18.6295C8.93593 18.6295 7.93271 18.4203 6.99594 17.995C6.05916 17.5767 5.23533 16.991 4.53108 16.2589C3.82684 15.5199 3.2754 14.6623 2.87677 13.6723C2.47814 12.6892 2.27218 11.6295 2.27218 10.507C2.27218 9.39839 2.4715 8.35257 2.87677 7.36951C3.2754 6.38644 3.83348 5.52887 4.53108 4.7968C5.22868 4.06473 6.04587 3.48604 6.98929 3.06074C7.92607 2.63544 8.93593 2.41931 10.0056 2.41931C10.7098 2.41931 11.3941 2.51692 12.0519 2.70516C12.7096 2.90038 13.3208 3.1723 13.8922 3.5209C14.4636 3.87648 14.9818 4.29481 15.4535 4.78285C15.9186 5.2709 16.3239 5.8217 16.656 6.4213C16.9949 7.0209 17.254 7.66234 17.4334 8.35258C17.6194 9.04281 17.7058 9.75397 17.7058 10.5C17.7058 11.6295 17.5065 12.6823 17.1012 13.6723Z" fill="#1D82C1" style="fill:#1D82C1;fill:color(display-p3 0.1137 0.5098 0.7569);fill-opacity:1;"/>
<path d="M92.9467 5.21513C92.5149 4.43425 91.99 3.72309 91.3788 3.08166C90.7676 2.4472 90.0899 1.8964 89.3524 1.43624C88.615 0.976081 87.8177 0.627476 86.9673 0.37648C86.1169 0.132456 85.2333 0.00695801 84.3164 0.00695801C83.3929 0.00695801 82.5027 0.132456 81.6523 0.383452C80.8018 0.634448 80.0046 0.990026 79.2605 1.44321C78.5164 1.8964 77.8454 2.4472 77.2341 3.08863C76.6295 3.73007 76.1047 4.44122 75.6662 5.2221C75.2277 6.00297 74.8955 6.83963 74.6563 7.73206C74.4238 8.62449 74.3042 9.55178 74.3042 10.5139C74.3042 11.4831 74.4238 12.4173 74.6563 13.3097C74.8888 14.2022 75.2277 15.0388 75.6595 15.8127C76.0914 16.5866 76.6096 17.2908 77.2208 17.9323C77.8254 18.5667 78.5031 19.1175 79.2472 19.5777C79.9913 20.0378 80.7819 20.3864 81.6323 20.6374C82.4761 20.8815 83.3664 21.007 84.2898 21.007C85.2133 21.007 86.1036 20.8815 86.9607 20.6374C87.8177 20.3934 88.615 20.0378 89.3591 19.5846C90.1032 19.1315 90.7742 18.5876 91.3854 17.9462C91.99 17.3117 92.5149 16.6006 92.9534 15.8267C93.3919 15.0528 93.7241 14.2161 93.9632 13.3237C94.1958 12.4313 94.3154 11.504 94.3154 10.5418C94.3154 9.57269 94.1958 8.63843 93.9566 7.73903C93.7174 6.83963 93.3786 6.00297 92.9467 5.21513ZM91.412 13.6723C91.0067 14.6554 90.4553 15.5199 89.7644 16.2589C89.0734 16.998 88.2562 17.5767 87.3128 17.995C86.376 18.4133 85.3794 18.6295 84.3231 18.6295C83.2468 18.6295 82.2436 18.4203 81.3068 17.995C80.37 17.5767 79.5462 16.991 78.8419 16.2589C78.1377 15.5199 77.5862 14.6623 77.1876 13.6723C76.789 12.6892 76.583 11.6295 76.583 10.507C76.583 9.39839 76.7823 8.35257 77.1876 7.36951C77.5862 6.38644 78.1443 5.52887 78.8419 4.7968C79.5462 4.0717 80.3634 3.49301 81.3068 3.06771C82.2436 2.64242 83.2534 2.42628 84.3231 2.42628C85.0273 2.42628 85.7116 2.52389 86.3694 2.71214C87.0271 2.90038 87.6383 3.17927 88.2097 3.52787C88.7811 3.88345 89.2993 4.30178 89.771 4.78983C90.2361 5.27787 90.6413 5.82867 90.9735 6.42827C91.3124 7.02787 91.5715 7.66931 91.7509 8.35955C91.9302 9.04979 92.0232 9.76094 92.0232 10.507C92.0232 11.6295 91.8173 12.6823 91.412 13.6723Z" fill="#1D82C1" style="fill:#1D82C1;fill:color(display-p3 0.1137 0.5098 0.7569);fill-opacity:1;"/>
<path d="M181.482 4.87351C182.173 4.12749 182.997 3.53486 183.954 3.09562C184.884 2.67032 185.901 2.44721 187.01 2.43327H187.369C187.721 2.43327 188.007 2.16833 188.007 1.79881V0.746018C188.007 0.376496 187.721 0.0139465 187.369 0.0139465H186.983C186.08 0.0209186 185.21 0.146417 184.372 0.390441C183.522 0.641437 182.725 0.997014 181.981 1.4502C181.237 1.90339 180.566 2.45419 179.954 3.09562C179.35 3.73705 178.825 4.44821 178.386 5.22909C177.948 6.00996 177.616 6.84662 177.377 7.73905C177.144 8.63148 177.024 9.55877 177.024 10.5209C177.024 11.49 177.144 12.4243 177.377 13.3167C177.609 14.2092 177.948 15.0458 178.38 15.8197C178.812 16.5936 179.33 17.2978 179.941 17.9392C180.546 18.5737 181.223 19.1245 181.961 19.5847C182.705 20.0448 183.495 20.3934 184.346 20.6444C185.183 20.8884 186.06 21.0139 186.977 21.0139H187.362C187.714 21.0139 188 20.749 188 20.3795V19.3127C188 18.9432 187.714 18.6225 187.362 18.6225H186.983C185.994 18.6155 185.037 18.4064 184.127 18.002C183.19 17.5906 182.366 17.0189 181.649 16.3008C180.931 15.5757 180.36 14.7251 179.934 13.7351C179.509 12.752 179.29 11.6922 179.29 10.5558C179.29 9.4751 179.483 8.44323 179.868 7.46016C180.253 6.48407 180.791 5.61952 181.482 4.87351Z" fill="#1D82C1" style="fill:#1D82C1;fill:color(display-p3 0.1137 0.5098 0.7569);fill-opacity:1;"/>
<path d="M133.488 0.285858H132.398C132.205 0.285858 132.059 0.341635 131.959 0.453189C131.86 0.564743 131.807 0.711157 131.807 0.892432V20.0936C131.807 20.498 132.006 20.7002 132.398 20.7002H133.488C133.674 20.7002 133.813 20.6514 133.919 20.5468C134.026 20.4492 134.079 20.2958 134.079 20.0936V0.892432C134.079 0.711157 134.026 0.564743 133.913 0.453189C133.8 0.341635 133.66 0.285858 133.488 0.285858Z" fill="#1D82C1" style="fill:#1D82C1;fill:color(display-p3 0.1137 0.5098 0.7569);fill-opacity:1;"/>
<path d="M158.86 0.453189C158.728 0.341635 158.588 0.285858 158.429 0.285858H157.352C157.186 0.285858 157.053 0.334663 156.954 0.432272C156.854 0.529882 156.794 0.662352 156.774 0.822711V16.6285L145.015 0.55777C144.882 0.376496 144.716 0.285858 144.516 0.285858H143.061C142.889 0.285858 142.749 0.348607 142.643 0.467133C142.537 0.585659 142.483 0.739045 142.483 0.92032V20.0936C142.483 20.498 142.676 20.7002 143.061 20.7002H144.151C144.55 20.7002 144.756 20.498 144.756 20.0936V3.98805L156.701 20.4422C156.834 20.6165 156.993 20.7002 157.186 20.7002H158.429C158.847 20.7002 159.06 20.498 159.06 20.0936V0.892432C159.06 0.711157 158.993 0.564743 158.86 0.453189Z" fill="#1D82C1" style="fill:#1D82C1;fill:color(display-p3 0.1137 0.5098 0.7569);fill-opacity:1;"/>
<path d="M169.298 0.285858H168.208C168.015 0.285858 167.869 0.341635 167.77 0.453189C167.67 0.564743 167.617 0.711157 167.617 0.892432V20.0936C167.617 20.498 167.816 20.7002 168.208 20.7002H169.298C169.484 20.7002 169.623 20.6514 169.729 20.5468C169.836 20.4492 169.889 20.2958 169.889 20.0936V0.892432C169.889 0.711157 169.836 0.564743 169.723 0.453189C169.617 0.341635 169.47 0.285858 169.298 0.285858Z" fill="#1D82C1" style="fill:#1D82C1;fill:color(display-p3 0.1137 0.5098 0.7569);fill-opacity:1;"/>
<path d="M54.6585 0.285858H54.1403H42.2877C41.9356 0.285858 41.6499 0.585659 41.6499 0.955181V2.01494C41.6499 2.38446 41.9356 2.68426 42.2877 2.68426H47.5563V20.0797C47.5563 20.261 47.6094 20.4143 47.729 20.5259C47.8419 20.6374 47.9881 20.7002 48.1608 20.7002H49.2239C49.4232 20.7002 49.576 20.6444 49.6756 20.5189C49.7753 20.4004 49.8284 20.254 49.8284 20.0797V2.67729H54.1469H54.6651C55.0173 2.67729 55.3029 2.37749 55.3029 2.00797V0.955181C55.2897 0.585659 55.004 0.285858 54.6585 0.285858Z" fill="#1D82C1" style="fill:#1D82C1;fill:color(display-p3 0.1137 0.5098 0.7569);fill-opacity:1;"/>
<path d="M37.6105 11.6016C37.2716 11.2251 36.873 10.9044 36.4212 10.6255C35.9695 10.3536 35.4845 10.1096 34.9662 9.9004C34.448 9.69123 33.9232 9.50996 33.3784 9.34263C32.8336 9.1753 32.3021 9.02191 31.7905 8.8755C31.2191 8.70817 30.6611 8.53386 30.1096 8.35259C29.5582 8.17131 29.0599 7.95518 28.6148 7.69721C28.1696 7.43924 27.8175 7.14641 27.5385 6.80478C27.2661 6.46315 27.1265 6.05876 27.1265 5.59163C27.1265 5.19422 27.2063 4.80378 27.3657 4.40637C27.5252 4.00896 27.7776 3.66036 28.1231 3.33964C28.4686 3.0259 28.9071 2.76793 29.4386 2.57968C29.9568 2.39143 30.5813 2.29382 31.3055 2.29382H31.3985C31.4317 2.29382 31.465 2.29382 31.4915 2.29382H31.538C31.8902 2.29382 32.1758 2.09163 32.1758 1.72211V0.669323C32.1758 0.299801 31.8902 0 31.538 0H31.1527V0.00697211C30.2491 0.0278884 29.4187 0.167331 28.6679 0.411355C27.8374 0.683267 27.1332 1.07371 26.5485 1.58267C25.9639 2.08466 25.5121 2.68426 25.1932 3.38147C24.8743 4.07868 24.7148 4.84562 24.7148 5.6753C24.7148 6.37251 24.8477 6.99303 25.1135 7.52988C25.3792 8.0737 25.7779 8.56175 26.316 8.99402C26.8542 9.42629 27.5252 9.81673 28.3357 10.1584C29.1463 10.5 30.083 10.8137 31.1593 11.1066C31.8437 11.2878 32.5014 11.4761 33.1392 11.6713C33.777 11.8665 34.3417 12.0966 34.8334 12.3685C35.325 12.6404 35.717 12.9681 36.0093 13.3516C36.3017 13.7351 36.4478 14.2092 36.4478 14.7669C36.4478 15.2062 36.3747 15.6106 36.2286 15.9731C36.0824 16.3426 35.8897 16.6703 35.6373 16.9562C35.3848 17.242 35.0991 17.5 34.7669 17.7092C34.4347 17.9253 34.0826 18.1066 33.7106 18.246C33.3385 18.3855 32.9598 18.49 32.5745 18.5598C32.2024 18.6225 31.8437 18.6574 31.4915 18.6643H31.1062C30.7541 18.6643 30.475 18.9781 30.475 19.3476V20.4074C30.475 20.7769 30.7607 20.9791 31.1128 20.9791H31.4982C32.4748 20.9651 33.3917 20.8187 34.2487 20.5329C35.139 20.2331 35.9163 19.8078 36.5807 19.2639C37.2451 18.7131 37.7633 18.0438 38.1486 17.256C38.5273 16.4681 38.72 15.5827 38.72 14.5996C38.72 13.9582 38.6203 13.3934 38.4277 12.9054C38.2217 12.4104 37.9493 11.9781 37.6105 11.6016Z" fill="#1D82C1" style="fill:#1D82C1;fill:color(display-p3 0.1137 0.5098 0.7569);fill-opacity:1;"/>
<path d="M109.67 0.0139465H109.284C108.381 0.0209186 107.51 0.146417 106.673 0.390441C105.823 0.641437 105.026 0.997014 104.281 1.4502C103.537 1.90339 102.866 2.45419 102.255 3.09562C101.651 3.73705 101.126 4.44821 100.687 5.22909C100.249 6.00996 99.9165 6.84662 99.6773 7.73905C99.4448 8.63148 99.3252 9.55877 99.3252 10.5209C99.3252 11.49 99.4448 12.4243 99.6773 13.3167C99.9099 14.2092 100.249 15.0458 100.681 15.8197C101.112 16.5936 101.631 17.2978 102.242 17.9392C102.846 18.5737 103.524 19.1245 104.262 19.5847C105.006 20.0448 105.796 20.3934 106.647 20.6444C107.484 20.8884 108.361 21.0139 109.278 21.0139H109.663C110.015 21.0139 110.301 20.749 110.301 20.3795V19.3127C110.301 18.9432 110.015 18.6225 109.663 18.6225H109.284C108.294 18.6155 107.338 18.4064 106.427 18.002C105.491 17.5906 104.667 17.0189 103.949 16.3008C103.232 15.5757 102.66 14.7251 102.235 13.7351C101.81 12.752 101.591 11.6922 101.591 10.5558C101.591 9.4751 101.783 8.44323 102.169 7.46016C102.554 6.47709 103.092 5.61952 103.783 4.86654C104.474 4.12052 105.298 3.52789 106.255 3.08865C107.185 2.66335 108.201 2.44024 109.311 2.4263H109.67C110.022 2.4263 110.307 2.16136 110.307 1.79183V0.746018C110.307 0.376496 110.022 0.0139465 109.67 0.0139465Z" fill="#1D82C1" style="fill:#1D82C1;fill:color(display-p3 0.1137 0.5098 0.7569);fill-opacity:1;"/>
<path d="M124.671 18.3506H124.286H121.376V0.892432C121.376 0.697213 121.323 0.550798 121.21 0.446217C121.103 0.341635 120.964 0.285858 120.798 0.285858H119.708C119.515 0.285858 119.369 0.348607 119.263 0.467133C119.157 0.585659 119.104 0.732073 119.104 0.892432V20.0936C119.104 20.498 119.296 20.7002 119.682 20.7002H124.279H124.465H124.664C125.017 20.7002 125.302 20.4353 125.302 20.0657V19.006C125.309 18.6434 125.023 18.3506 124.671 18.3506Z" fill="#1D82C1" style="fill:#1D82C1;fill:color(display-p3 0.1137 0.5098 0.7569);fill-opacity:1;"/>
<path d="M67.2552 0.285858H67.2352H66.7369H62.9965C62.6111 0.285858 62.4185 0.495022 62.4185 0.92032V20.1215C62.4185 20.505 62.6111 20.7002 62.9965 20.7002H66.7369H67.2352H67.2552C67.6073 20.7002 67.893 20.4004 67.893 20.0309V18.9711C67.893 18.6016 67.6073 18.3018 67.2552 18.3018H67.2352H66.7369H64.684V11.1484H67.2286V11.1414H67.2485C67.6006 11.1414 67.8863 10.8416 67.8863 10.4721V9.41235C67.8863 9.04283 67.6006 8.74303 67.2485 8.74303H66.7369V8.75H64.684V2.67729H66.7369H67.2352H67.2552C67.6073 2.67729 67.893 2.37749 67.893 2.00797V0.955181C67.893 0.585659 67.6073 0.285858 67.2552 0.285858Z" fill="#1D82C1" style="fill:#1D82C1;fill:color(display-p3 0.1137 0.5098 0.7569);fill-opacity:1;"/>
</svg>
