<svg width="148" height="34" viewBox="0 0 148 34" fill="none" xmlns="http://www.w3.org/2000/svg">
<path d="M14.8129 15.0213H11.5726L10.2846 11.6665H4.38759L3.16996 15.0213H0.0101492L5.75617 0.251866H8.90591L14.8129 15.0213ZM9.32856 9.17801L7.29582 3.6974L5.30333 9.17801H9.32856Z" fill="white" style="fill:white;fill-opacity:1;"/>
<path d="M17.7091 10.2157L20.6073 9.93361C20.7817 10.9075 21.1339 11.6228 21.6639 12.0795C22.2006 12.5362 22.9218 12.7646 23.8275 12.7646C24.7868 12.7646 25.508 12.5631 25.991 12.1601C26.4808 11.7504 26.7256 11.2735 26.7256 10.7295C26.7256 10.3803 26.6216 10.0847 26.4137 9.84294C26.2124 9.59443 25.8568 9.37951 25.347 9.19816C24.9981 9.07727 24.2031 8.86234 22.962 8.55338C21.3654 8.15711 20.245 7.67017 19.601 7.09256C18.6953 6.27987 18.2424 5.2892 18.2424 4.12053C18.2424 3.36829 18.4538 2.66643 18.8764 2.01493C19.3058 1.35672 19.9196 0.856346 20.718 0.513808C21.523 0.171269 22.4924 0 23.6262 0C25.4778 0 26.8699 0.406345 27.8024 1.21903C28.7416 2.03172 29.2347 3.11643 29.2816 4.47315L26.303 4.60412C26.1755 3.84516 25.9004 3.30113 25.4778 2.97202C25.0619 2.6362 24.4346 2.46829 23.596 2.46829C22.7306 2.46829 22.053 2.64628 21.5633 3.00225C21.248 3.23061 21.0903 3.5362 21.0903 3.91904C21.0903 4.2683 21.2379 4.56718 21.5331 4.81569C21.9088 5.13136 22.8211 5.46046 24.2702 5.803C25.7193 6.14554 26.7894 6.50151 27.4804 6.87092C28.1781 7.2336 28.7215 7.73398 29.1106 8.37204C29.5064 9.00339 29.7043 9.78585 29.7043 10.7194C29.7043 11.5657 29.4695 12.3582 28.9999 13.0971C28.5303 13.8359 27.8661 14.3866 27.0074 14.7493C26.1487 15.1053 25.0786 15.2833 23.7973 15.2833C21.9322 15.2833 20.4999 14.8534 19.5003 13.9937C18.5007 13.1273 17.9037 11.8679 17.7091 10.2157Z" fill="white" style="fill:white;fill-opacity:1;"/>
<path d="M34.2307 15.0213V0.251866H38.6886L41.3654 10.3265L44.012 0.251866H48.48V15.0213H45.7126V3.39516L42.7843 15.0213H39.9163L36.998 3.39516V15.0213H34.2307Z" fill="white" style="fill:white;fill-opacity:1;"/>
<path d="M66.8029 15.0213H63.5625L62.2745 11.6665H56.3775L55.1599 15.0213H52.0001L57.7461 0.251866H60.8958L66.8029 15.0213ZM61.3185 9.17801L59.2857 3.6974L57.2932 9.17801H61.3185Z" fill="white" style="fill:white;fill-opacity:1;"/>
<path d="M70.4839 15.0213V0.251866H73.3821L79.42 10.115V0.251866H82.1873V15.0213H79.1986L73.2513 5.38994V15.0213H70.4839Z" fill="white" style="fill:white;fill-opacity:1;"/>
<path d="M104.644 9.59107L107.532 10.5079C107.089 12.1198 106.351 13.3187 105.318 14.1045C104.292 14.8836 102.987 15.2732 101.404 15.2732C99.4448 15.2732 97.8347 14.6049 96.5735 13.2683C95.3122 11.925 94.6816 10.0914 94.6816 7.76756C94.6816 5.30934 95.3156 3.40188 96.5835 2.04516C97.8515 0.681718 99.5186 0 101.585 0C103.39 0 104.855 0.533957 105.982 1.60187C106.653 2.23322 107.156 3.13993 107.492 4.32203L104.543 5.02725C104.369 4.26158 104.003 3.6571 103.447 3.21382C102.896 2.77053 102.226 2.54889 101.434 2.54889C100.34 2.54889 99.4515 2.9418 98.7672 3.72762C98.0897 4.51345 97.7509 5.78621 97.7509 7.54592C97.7509 9.41309 98.0863 10.7429 98.7572 11.5355C99.428 12.328 100.3 12.7243 101.374 12.7243C102.165 12.7243 102.846 12.4724 103.416 11.9687C103.987 11.465 104.396 10.6724 104.644 9.59107Z" fill="white" style="fill:white;fill-opacity:1;"/>
<path d="M112.069 15.0213V0.251866H115.047V15.0213H112.069Z" fill="white" style="fill:white;fill-opacity:1;"/>
<path d="M123.277 15.0213V2.75038H118.899V0.251866H130.623V2.75038H126.256V15.0213H123.277Z" fill="white" style="fill:white;fill-opacity:1;"/>
<path d="M138.49 15.0213V8.80525L133.086 0.251866H136.578L140.05 6.09517L143.451 0.251866H146.883L141.459 8.8254V15.0213H138.49Z" fill="white" style="fill:white;fill-opacity:1;"/>
<path d="M0 32.4303L1.90466 27.4651H2.61172L4.64155 32.4303H3.89389L3.31539 30.9265H1.24158L0.696909 32.4303H0ZM1.43103 30.3914H3.11241L2.5948 29.0163C2.43693 28.5986 2.31965 28.2554 2.24296 27.9867C2.17981 28.305 2.09073 28.6211 1.9757 28.935L1.43103 30.3914Z" fill="white" style="fill:white;fill-opacity:1;"/>
<path d="M7.3239 27.4651H10.531V28.051H7.98021V32.4303H7.3239V27.4651Z" fill="white" style="fill:white;fill-opacity:1;"/>
<path d="M13.2303 32.4303V27.4651H16.8163V28.051H13.8866V29.5717H16.6303V30.1543H13.8866V31.8444H16.9314V32.4303H13.2303Z" fill="white" style="fill:white;fill-opacity:1;"/>
<path d="M20.0062 32.4303V27.4651H20.6625V29.504H23.2404V27.4651H23.8967V32.4303H23.2404V30.0899H20.6625V32.4303H20.0062Z" fill="white" style="fill:white;fill-opacity:1;"/>
<path d="M28.4025 32.4303V28.051H26.7685V27.4651H30.6996V28.051H29.0588V32.4303H28.4025Z" fill="white" style="fill:white;fill-opacity:1;"/>
<path d="M37.0627 30.6894L37.719 30.8554C37.5814 31.395 37.3333 31.8071 36.9747 32.0916C36.6184 32.3739 36.182 32.515 35.6655 32.515C35.131 32.515 34.6957 32.4066 34.3596 32.1898C34.0258 31.9708 33.771 31.6547 33.5951 31.2415C33.4214 30.8283 33.3346 30.3846 33.3346 29.9104C33.3346 29.3934 33.4327 28.9429 33.6289 28.559C33.8274 28.1729 34.1082 27.8805 34.4713 27.6818C34.8366 27.4809 35.2381 27.3804 35.6756 27.3804C36.1718 27.3804 36.5891 27.5068 36.9274 27.7597C37.2657 28.0126 37.5014 28.3682 37.6344 28.8266L36.9883 28.979C36.8732 28.6178 36.7063 28.3547 36.4876 28.1899C36.2688 28.025 35.9936 27.9426 35.6621 27.9426C35.281 27.9426 34.9618 28.0341 34.7047 28.217C34.4498 28.3999 34.2705 28.646 34.1668 28.9553C34.063 29.2624 34.0112 29.5796 34.0112 29.907C34.0112 30.3293 34.0721 30.6985 34.1939 31.0146C34.3179 31.3284 34.5096 31.5633 34.769 31.7191C35.0283 31.8749 35.3091 31.9528 35.6114 31.9528C35.979 31.9528 36.2902 31.8466 36.5451 31.6344C36.7999 31.4221 36.9725 31.1072 37.0627 30.6894Z" fill="white" style="fill:white;fill-opacity:1;"/>
<path d="M41.7106 32.4303V28.051H40.0766V27.4651H44.0077V28.051H42.3669V32.4303H41.7106Z" fill="white" style="fill:white;fill-opacity:1;"/>
<path d="M46.8051 32.4303V27.4651H48.6657C49.0446 27.4651 49.348 27.5159 49.5758 27.6175C49.8058 27.7168 49.9851 27.8715 50.1137 28.0815C50.2445 28.2892 50.3099 28.5071 50.3099 28.7352C50.3099 28.9474 50.2524 29.1472 50.1374 29.3347C50.0224 29.5221 49.8487 29.6733 49.6164 29.7885C49.9163 29.8766 50.1464 30.0267 50.3065 30.239C50.4689 30.4512 50.5501 30.7019 50.5501 30.9909C50.5501 31.2234 50.5005 31.4402 50.4013 31.6412C50.3043 31.8399 50.1836 31.9934 50.0393 32.1018C49.8949 32.2102 49.7134 32.2926 49.4946 32.349C49.2781 32.4032 49.0119 32.4303 48.6962 32.4303H46.8051ZM47.4614 29.5514H48.5338C48.8247 29.5514 49.0334 29.5322 49.1597 29.4938C49.3266 29.4442 49.4517 29.3618 49.5352 29.2466C49.6209 29.1314 49.6637 28.9869 49.6637 28.8131C49.6637 28.6482 49.6243 28.5037 49.5453 28.3795C49.4664 28.2531 49.3536 28.1673 49.207 28.1221C49.0604 28.0747 48.809 28.051 48.4526 28.051H47.4614V29.5514ZM47.4614 31.8444H48.6962C48.9082 31.8444 49.0571 31.8365 49.1428 31.8207C49.2939 31.7936 49.4202 31.7484 49.5217 31.6852C49.6231 31.622 49.7066 31.5305 49.772 31.4109C49.8374 31.2889 49.8701 31.1489 49.8701 30.9909C49.8701 30.8057 49.8228 30.6454 49.728 30.5099C49.6333 30.3722 49.5014 30.2762 49.3322 30.222C49.1653 30.1656 48.924 30.1374 48.6082 30.1374H47.4614V31.8444Z" fill="white" style="fill:white;fill-opacity:1;"/>
<path d="M53.1716 30.012C53.1716 29.1879 53.3926 28.5432 53.8346 28.0781C54.2767 27.6107 54.8473 27.377 55.5465 27.377C56.0043 27.377 56.417 27.4865 56.7847 27.7055C57.1523 27.9246 57.432 28.2305 57.6237 28.6234C57.8176 29.014 57.9146 29.4577 57.9146 29.9545C57.9146 30.458 57.8131 30.9085 57.6101 31.3059C57.4071 31.7033 57.1196 32.0047 56.7475 32.2102C56.3753 32.4134 55.9739 32.515 55.5431 32.515C55.0762 32.515 54.659 32.4021 54.2914 32.1763C53.9237 31.9505 53.6452 31.6423 53.4557 31.2517C53.2663 30.861 53.1716 30.4478 53.1716 30.012ZM53.8482 30.0222C53.8482 30.6206 54.0083 31.0925 54.3286 31.4379C54.6511 31.7812 55.0548 31.9528 55.5397 31.9528C56.0336 31.9528 56.4396 31.7789 56.7576 31.4312C57.0779 31.0834 57.238 30.5901 57.238 29.9511C57.238 29.5469 57.1692 29.1947 57.0316 28.8944C56.8963 28.5918 56.6967 28.3581 56.4328 28.1933C56.1712 28.0262 55.8769 27.9426 55.5499 27.9426C55.0852 27.9426 54.6849 28.1029 54.3489 28.4236C54.0151 28.7419 53.8482 29.2748 53.8482 30.0222Z" fill="white" style="fill:white;fill-opacity:1;"/>
<path d="M65.0081 32.4303V27.4651H65.6644V29.504H68.2423V27.4651H68.8986V32.4303H68.2423V30.0899H65.6644V32.4303H65.0081Z" fill="white" style="fill:white;fill-opacity:1;"/>
<path d="M72.156 32.4303V27.4651H75.7421V28.051H72.8123V29.5717H75.556V30.1543H72.8123V31.8444H75.8571V32.4303H72.156Z" fill="white" style="fill:white;fill-opacity:1;"/>
<path d="M79.3615 27.4651H82.3792V31.8444H82.8258V33.5887H82.2405V32.4303H78.9623V33.5887H78.3771V31.8444H78.7627C79.1619 31.2415 79.3615 30.0233 79.3615 28.1899V27.4651ZM81.7229 28.051H79.9942V28.305C79.9942 28.7273 79.9558 29.3053 79.8791 30.0391C79.8047 30.7707 79.657 31.3725 79.436 31.8444H81.7229V28.051Z" fill="white" style="fill:white;fill-opacity:1;"/>
<path d="M85.728 32.4303V27.4651H87.5887C87.9676 27.4651 88.271 27.5159 88.4988 27.6175C88.7288 27.7168 88.9081 27.8715 89.0367 28.0815C89.1675 28.2892 89.2329 28.5071 89.2329 28.7352C89.2329 28.9474 89.1754 29.1472 89.0603 29.3347C88.9453 29.5221 88.7717 29.6733 88.5394 29.7885C88.8393 29.8766 89.0694 30.0267 89.2295 30.239C89.3919 30.4512 89.4731 30.7019 89.4731 30.9909C89.4731 31.2234 89.4235 31.4402 89.3242 31.6412C89.2272 31.8399 89.1066 31.9934 88.9622 32.1018C88.8179 32.2102 88.6363 32.2926 88.4176 32.349C88.201 32.4032 87.9349 32.4303 87.6192 32.4303H85.728ZM86.3843 29.5514H87.4568C87.7477 29.5514 87.9563 29.5322 88.0826 29.4938C88.2495 29.4442 88.3747 29.3618 88.4582 29.2466C88.5439 29.1314 88.5867 28.9869 88.5867 28.8131C88.5867 28.6482 88.5472 28.5037 88.4683 28.3795C88.3894 28.2531 88.2766 28.1673 88.13 28.1221C87.9834 28.0747 87.7319 28.051 87.3756 28.051H86.3843V29.5514ZM86.3843 31.8444H87.6192C87.8312 31.8444 87.98 31.8365 88.0657 31.8207C88.2168 31.7936 88.3431 31.7484 88.4446 31.6852C88.5461 31.622 88.6296 31.5305 88.695 31.4109C88.7604 31.2889 88.7931 31.1489 88.7931 30.9909C88.7931 30.8057 88.7457 30.6454 88.651 30.5099C88.5563 30.3722 88.4243 30.2762 88.2552 30.222C88.0883 30.1656 87.847 30.1374 87.5312 30.1374H86.3843V31.8444Z" fill="white" style="fill:white;fill-opacity:1;"/>
<path d="M92.5343 27.4651H93.1297V31.3973L95.7685 27.4651H96.4282V32.4303H95.8328V28.5082L93.1906 32.4303H92.5343V27.4651Z" fill="white" style="fill:white;fill-opacity:1;"/>
<path d="M102.653 27.4651V29.6395C102.975 29.6395 103.196 29.5808 103.316 29.4634C103.438 29.3437 103.592 29.0648 103.779 28.6268C103.917 28.3016 104.03 28.0725 104.117 27.9392C104.208 27.8038 104.335 27.6909 104.5 27.6005C104.664 27.508 104.845 27.4617 105.041 27.4617C105.255 27.4617 105.388 27.4639 105.44 27.4684V28.0375C105.42 28.0375 105.377 28.0363 105.312 28.0341C105.24 28.0318 105.196 28.0307 105.18 28.0307C104.97 28.0307 104.814 28.0815 104.713 28.1831C104.609 28.2847 104.491 28.5015 104.358 28.8334C104.213 29.1924 104.088 29.4374 103.982 29.5684C103.876 29.6971 103.723 29.8043 103.522 29.8901C103.847 29.9804 104.161 30.2762 104.466 30.7775L105.488 32.4303H104.676L103.847 31.0823C103.626 30.7256 103.44 30.4738 103.289 30.327C103.138 30.1803 102.926 30.1069 102.653 30.1069V32.4303H101.979V30.1069C101.763 30.1069 101.571 30.1645 101.404 30.2796C101.24 30.3925 101.047 30.6375 100.826 31.0146L100.785 31.0823L99.9563 32.4303H99.141L100.163 30.7775C100.474 30.274 100.79 29.9782 101.11 29.8901C100.932 29.8179 100.786 29.7219 100.674 29.6022C100.561 29.4803 100.427 29.224 100.271 28.8334C100.129 28.4789 100.007 28.2565 99.9056 28.1662C99.8041 28.0758 99.653 28.0307 99.4523 28.0307L99.1884 28.0375V27.4684C99.2132 27.4639 99.3395 27.4617 99.5673 27.4617C99.7838 27.4617 99.971 27.5068 100.129 27.5972C100.289 27.6852 100.414 27.797 100.504 27.9325C100.595 28.0657 100.711 28.2971 100.853 28.6268C101.042 29.0716 101.196 29.3505 101.313 29.4634C101.432 29.5763 101.655 29.635 101.979 29.6395V27.4651H102.653Z" fill="white" style="fill:white;fill-opacity:1;"/>
<path d="M108.211 27.4651H108.806V31.3973L111.445 27.4651H112.104V32.4303H111.509V28.5082L108.867 32.4303H108.211V27.4651Z" fill="white" style="fill:white;fill-opacity:1;"/>
<path d="M115.308 32.4303V27.4651H116.296L117.47 30.9807C117.578 31.3081 117.657 31.5531 117.706 31.7157C117.763 31.535 117.851 31.2697 117.97 30.9197L119.158 27.4651H120.041V32.4303H119.408V28.2745L117.967 32.4303H117.375L115.94 28.2034V32.4303H115.308Z" fill="white" style="fill:white;fill-opacity:1;"/>
<path d="M123.048 30.012C123.048 29.1879 123.269 28.5432 123.711 28.0781C124.153 27.6107 124.724 27.377 125.423 27.377C125.881 27.377 126.293 27.4865 126.661 27.7055C127.029 27.9246 127.308 28.2305 127.5 28.6234C127.694 29.014 127.791 29.4577 127.791 29.9545C127.791 30.458 127.689 30.9085 127.486 31.3059C127.283 31.7033 126.996 32.0047 126.624 32.2102C126.252 32.4134 125.85 32.515 125.419 32.515C124.952 32.515 124.535 32.4021 124.168 32.1763C123.8 31.9505 123.521 31.6423 123.332 31.2517C123.143 30.861 123.048 30.4478 123.048 30.012ZM123.724 30.0222C123.724 30.6206 123.885 31.0925 124.205 31.4379C124.527 31.7812 124.931 31.9528 125.416 31.9528C125.91 31.9528 126.316 31.7789 126.634 31.4312C126.954 31.0834 127.114 30.5901 127.114 29.9511C127.114 29.5469 127.045 29.1947 126.908 28.8944C126.773 28.5918 126.573 28.3581 126.309 28.1933C126.047 28.0262 125.753 27.9426 125.426 27.9426C124.962 27.9426 124.561 28.1029 124.225 28.4236C123.891 28.7419 123.724 29.2748 123.724 30.0222Z" fill="white" style="fill:white;fill-opacity:1;"/>
<path d="M134.327 30.6894L134.983 30.8554C134.845 31.395 134.597 31.8071 134.239 32.0916C133.882 32.3739 133.446 32.515 132.929 32.515C132.395 32.515 131.96 32.4066 131.623 32.1898C131.29 31.9708 131.035 31.6547 130.859 31.2415C130.685 30.8283 130.598 30.3846 130.598 29.9104C130.598 29.3934 130.697 28.9429 130.893 28.559C131.091 28.1729 131.372 27.8805 131.735 27.6818C132.1 27.4809 132.502 27.3804 132.939 27.3804C133.436 27.3804 133.853 27.5068 134.191 27.7597C134.53 28.0126 134.765 28.3682 134.898 28.8266L134.252 28.979C134.137 28.6178 133.97 28.3547 133.751 28.1899C133.533 28.025 133.257 27.9426 132.926 27.9426C132.545 27.9426 132.226 28.0341 131.969 28.217C131.714 28.3999 131.534 28.646 131.431 28.9553C131.327 29.2624 131.275 29.5796 131.275 29.907C131.275 30.3293 131.336 30.6985 131.458 31.0146C131.582 31.3284 131.773 31.5633 132.033 31.7191C132.292 31.8749 132.573 31.9528 132.875 31.9528C133.243 31.9528 133.554 31.8466 133.809 31.6344C134.064 31.4221 134.236 31.1072 134.327 30.6894Z" fill="white" style="fill:white;fill-opacity:1;"/>
<path d="M138.974 32.4303V28.051H137.34V27.4651H141.272V28.051H139.631V32.4303H138.974Z" fill="white" style="fill:white;fill-opacity:1;"/>
<path d="M144.106 27.4651H144.702V31.3973L147.34 27.4651H148V32.4303H147.405V28.5082L144.762 32.4303H144.106V27.4651Z" fill="white" style="fill:white;fill-opacity:1;"/>
</svg>
