<svg width="32" height="32" viewBox="0 0 32 32" fill="none" xmlns="http://www.w3.org/2000/svg">
<circle cx="16" cy="16" r="16" fill="#D80027" style="fill:#D80027;fill:color(display-p3 0.8471 0.0000 0.1529);fill-opacity:1;"/>
<path d="M18.8184 22.0747L20.4434 22.5063L18.875 23.106L18.9688 24.7808L17.9121 23.481L16.3496 24.0874L17.2559 22.6812L16.2002 21.3745L17.8184 21.8062L18.7314 20.3999L18.8184 22.0747ZM22.9121 18.3628L24.5879 18.3433L23.2441 19.3433L23.7812 20.9312L22.4121 19.9624L21.0684 20.9683L21.5684 19.3687L20.2002 18.3999L21.875 18.3745L22.3691 16.7749L22.9121 18.3628ZM10.1377 13.9878H14.6064L10.9941 16.6187L12.375 20.8687L8.75586 18.2437L5.1377 20.8687L6.52539 16.6187L2.90625 13.9878H7.375L8.75586 9.73779L10.1377 13.9878ZM22.4189 12.5249L23.9004 11.7437L23.1621 13.2495L24.3623 14.4185L22.7061 14.1812L21.9688 15.6812L21.6816 14.0308L20.0186 13.7935L21.5059 13.0122L21.2188 11.356L22.4189 12.5249ZM18.8877 8.8501L20.4434 9.48096L18.8125 9.88135L18.6934 11.5562L17.8125 10.1313L16.1816 10.5308L17.2627 9.24951L16.375 7.83154L17.9316 8.4624L19.0127 7.18115L18.8877 8.8501Z" fill="#FFDA44" style="fill:#FFDA44;fill:color(display-p3 1.0000 0.8549 0.2667);fill-opacity:1;"/>
</svg>
