<svg width="89" height="52" viewBox="0 0 89 52" fill="none" xmlns="http://www.w3.org/2000/svg">
<path d="M8.12336 28H0.70444V27.3718C3.54637 27.3718 3.8156 26.953 3.8156 25.1282V6.93983C3.8156 5.11502 3.54637 4.69621 0.70444 4.69621V4.06799H7.70455C14.226 4.06799 19.4612 8.43558 19.4612 16.2434C19.4612 23.5127 14.8842 28 8.12336 28ZM7.85413 26.9829C14.5252 26.9829 17.4868 22.1067 17.4868 16.3631C17.4868 9.60227 13.3884 5.0851 7.97379 5.0851C7.196 5.0851 6.56778 5.17485 6.29855 5.23468C5.87974 5.32442 5.67033 5.62357 5.67033 6.04238V25.6965C5.67033 26.7436 6.44812 26.9829 7.85413 26.9829ZM22.1659 6.04238C21.4778 6.04238 20.9992 5.50391 20.9992 4.78595C20.9992 3.94833 21.6274 3.35003 22.5548 3.35003C23.6018 3.35003 24.4095 4.18765 24.4095 5.53383C24.4095 6.79026 23.6916 8.19626 21.4778 9.00397V8.34584C22.824 7.83728 23.5121 6.96975 23.5121 6.13213C23.5121 5.83298 23.3924 5.65349 23.183 5.65349C22.9138 5.65349 22.7642 6.04238 22.1659 6.04238ZM32.3907 3.61926L39.2712 25.2777C39.8396 27.0427 40.3781 27.3718 42.2627 27.3718V28H34.9634V27.3718C37.8652 27.3718 37.8054 27.0128 37.2669 25.2777L35.6216 19.9828H27.3052L25.63 25.2777C25.0915 27.0128 25.0317 27.3718 27.9334 27.3718V28H21.6513V27.3718C23.506 27.3718 24.0145 27.0427 24.5829 25.2777L31.4335 3.61926H32.3907ZM31.4036 6.88L27.6043 19.0255H35.3224L31.5232 6.88H31.4036ZM52.7488 18.6964L55.9198 24.7692C56.907 26.594 57.3258 27.3419 59.6293 27.3419V28H58.8515C55.6506 28 55.2318 27.5513 53.9754 25.0384L49.6676 16.6024H49.1291C48.3813 16.6024 47.7231 16.5426 47.0949 16.4528V25.1282C47.0949 26.953 47.3641 27.3718 50.2061 27.3718V28H42.1589V27.3718C45.0009 27.3718 45.2701 26.953 45.2701 25.1282V6.93983C45.2701 5.11502 45.0009 4.69621 42.1589 4.69621V4.06799H50.0565C54.7532 4.06799 57.0267 6.34153 57.0267 10.051C57.0267 13.8502 54.6036 15.8844 51.1334 16.4528C51.6719 16.7819 52.0907 17.3503 52.7488 18.6964ZM47.0949 6.22187V15.4058C47.753 15.5554 48.471 15.6152 49.2488 15.6152C52.7189 15.6152 55.0822 13.9998 55.0822 10.2604C55.0822 6.90992 53.1677 5.0851 49.7873 5.0851C49.0693 5.0851 48.3513 5.17485 47.6633 5.38425C47.2744 5.53383 47.0949 5.83298 47.0949 6.22187ZM63.0906 25.1282V6.93983C63.0906 5.11502 62.8213 4.69621 59.9794 4.69621V4.06799H68.0564V4.69621C65.1846 4.69621 64.9154 5.11502 64.9154 6.93983V25.1282C64.9154 26.953 65.1846 27.3718 68.0564 27.3718V28H59.9794V27.3718C62.8213 27.3718 63.0906 26.953 63.0906 25.1282ZM78.6363 3.61926L85.5168 25.2777C86.0852 27.0427 86.6236 27.3718 88.5083 27.3718V28H81.209V27.3718C84.1108 27.3718 84.0509 27.0128 83.5125 25.2777L81.8671 19.9828H73.5508L71.8755 25.2777C71.3371 27.0128 71.2772 27.3718 74.179 27.3718V28H67.8968V27.3718C69.7516 27.3718 70.2601 27.0427 70.8285 25.2777L77.679 3.61926H78.6363ZM77.6491 6.88L73.8499 19.0255H81.568L77.7688 6.88H77.6491Z" fill="white" style="fill:white;fill-opacity:1;"/>
<path d="M24.7789 43.2649C24.7184 42.6819 24.5064 42.2617 24.143 42.0043C23.7871 41.7393 23.3291 41.6068 22.7688 41.6068C22.5417 41.6068 22.3183 41.6296 22.0988 41.675C21.8792 41.7204 21.6824 41.7961 21.5082 41.9021C21.3417 42.0081 21.2054 42.152 21.0994 42.3337C21.001 42.5078 20.9518 42.7274 20.9518 42.9923C20.9518 43.2422 21.0237 43.4466 21.1675 43.6056C21.319 43.757 21.5158 43.8819 21.7581 43.9804C22.0079 44.0788 22.2881 44.1621 22.5985 44.2302C22.9089 44.2908 23.2231 44.3589 23.5411 44.4346C23.8666 44.5103 24.1846 44.6012 24.495 44.7072C24.8054 44.8056 25.0818 44.9419 25.3241 45.116C25.5739 45.2902 25.7708 45.5097 25.9146 45.7747C26.066 46.0397 26.1417 46.3728 26.1417 46.7741C26.1417 47.2057 26.0433 47.5766 25.8465 47.8871C25.6572 48.1899 25.4111 48.4397 25.1083 48.6366C24.8054 48.8259 24.4647 48.9621 24.0862 49.0454C23.7152 49.1363 23.3442 49.1817 22.9732 49.1817C22.519 49.1817 22.0874 49.1249 21.6786 49.0114C21.2773 48.8978 20.9215 48.7274 20.6111 48.5003C20.3082 48.2656 20.066 47.9703 19.8842 47.6145C19.7101 47.2511 19.623 46.8233 19.623 46.3312H20.6451C20.6451 46.6719 20.7095 46.9672 20.8382 47.217C20.9745 47.4593 21.1486 47.6599 21.3606 47.8189C21.5802 47.9779 21.8338 48.0953 22.1215 48.171C22.4092 48.2467 22.7045 48.2845 23.0073 48.2845C23.2496 48.2845 23.4919 48.2618 23.7341 48.2164C23.984 48.171 24.2073 48.0953 24.4042 47.9893C24.601 47.8757 24.76 47.7243 24.8812 47.535C25.0023 47.3457 25.0629 47.1034 25.0629 46.8082C25.0629 46.528 24.9872 46.3009 24.8357 46.1268C24.6919 45.9526 24.495 45.8126 24.2452 45.7066C24.0029 45.593 23.7266 45.5022 23.4162 45.434C23.1057 45.3659 22.7878 45.2977 22.4622 45.2296C22.1442 45.1539 21.83 45.0706 21.5196 44.9798C21.2092 44.8813 20.9291 44.7564 20.6792 44.605C20.4369 44.446 20.2401 44.2454 20.0887 44.0031C19.9448 43.7532 19.8729 43.4428 19.8729 43.0718C19.8729 42.663 19.9562 42.3109 20.1227 42.0157C20.2893 41.7128 20.5089 41.4668 20.7814 41.2775C21.0615 41.0806 21.3757 40.9368 21.724 40.8459C22.0799 40.7475 22.4433 40.6983 22.8143 40.6983C23.2307 40.6983 23.6168 40.7475 23.9726 40.8459C24.3285 40.9444 24.6389 41.0996 24.9039 41.3116C25.1764 41.5236 25.3884 41.7923 25.5398 42.1179C25.6988 42.4359 25.7859 42.8182 25.801 43.2649H24.7789ZM30.8824 41.7999H28.1795V40.8914H34.6642V41.7999H31.9613V49H30.8824V41.7999ZM43.627 46.07C43.627 47.1072 43.3507 47.8871 42.798 48.4095C42.2453 48.9243 41.4579 49.1817 40.4358 49.1817C39.391 49.1817 38.5733 48.9356 37.9828 48.4435C37.3998 47.9438 37.1083 47.1527 37.1083 46.07V40.8914H38.1872V46.07C38.1872 46.7968 38.3803 47.3495 38.7664 47.7281C39.1525 48.099 39.709 48.2845 40.4358 48.2845C41.1248 48.2845 41.6472 48.099 42.003 47.7281C42.3665 47.3495 42.5482 46.7968 42.5482 46.07V40.8914H43.627V46.07ZM48.0184 48.0915H49.8128C49.9339 48.0915 50.0853 48.0839 50.267 48.0688C50.4487 48.046 50.6418 48.0006 50.8462 47.9325C51.0506 47.8568 51.2513 47.7508 51.4481 47.6145C51.6525 47.4782 51.8342 47.2927 51.9932 47.058C52.1522 46.8233 52.2809 46.5318 52.3794 46.1836C52.4854 45.8277 52.5384 45.3999 52.5384 44.9003C52.5384 44.4157 52.4891 43.9842 52.3907 43.6056C52.2999 43.2195 52.1447 42.8939 51.9251 42.6289C51.7131 42.3564 51.4368 42.152 51.0961 42.0157C50.7554 41.8718 50.3352 41.7999 49.8355 41.7999H48.0184V48.0915ZM46.9395 40.8914H49.7219C50.9711 40.8914 51.9327 41.2094 52.6065 41.8453C53.2803 42.4813 53.6172 43.4504 53.6172 44.7526C53.6172 45.434 53.5415 46.0397 53.3901 46.5697C53.2387 47.0921 53.004 47.535 52.686 47.8984C52.368 48.2542 51.963 48.5268 51.4708 48.7161C50.9787 48.9054 50.3957 49 49.7219 49H46.9395V40.8914ZM56.5711 40.8914H57.65V49H56.5711V40.8914ZM61.6792 44.9457C61.6792 45.3545 61.7322 45.7596 61.8382 46.1608C61.9442 46.5545 62.1107 46.9104 62.3379 47.2284C62.565 47.5464 62.8565 47.8038 63.2123 48.0006C63.5682 48.1899 63.9922 48.2845 64.4843 48.2845C64.9764 48.2845 65.4004 48.1899 65.7562 48.0006C66.1121 47.8038 66.4036 47.5464 66.6307 47.2284C66.8578 46.9104 67.0244 46.5545 67.1304 46.1608C67.2364 45.7596 67.2894 45.3545 67.2894 44.9457C67.2894 44.5368 67.2364 44.1356 67.1304 43.7419C67.0244 43.3406 66.8578 42.981 66.6307 42.663C66.4036 42.345 66.1121 42.0914 65.7562 41.9021C65.4004 41.7053 64.9764 41.6068 64.4843 41.6068C63.9922 41.6068 63.5682 41.7053 63.2123 41.9021C62.8565 42.0914 62.565 42.345 62.3379 42.663C62.1107 42.981 61.9442 43.3406 61.8382 43.7419C61.7322 44.1356 61.6792 44.5368 61.6792 44.9457ZM60.6003 44.9457C60.6003 44.393 60.6798 43.863 60.8388 43.3558C61.0054 42.8409 61.2514 42.3867 61.577 41.993C61.9025 41.5993 62.3076 41.2851 62.7921 41.0504C63.2767 40.8157 63.8407 40.6983 64.4843 40.6983C65.1278 40.6983 65.6919 40.8157 66.1764 41.0504C66.661 41.2851 67.066 41.5993 67.3916 41.993C67.7171 42.3867 67.9594 42.8409 68.1184 43.3558C68.285 43.863 68.3682 44.393 68.3682 44.9457C68.3682 45.4984 68.285 46.0321 68.1184 46.547C67.9594 47.0542 67.7171 47.5047 67.3916 47.8984C67.066 48.2921 66.661 48.6063 66.1764 48.841C65.6919 49.0681 65.1278 49.1817 64.4843 49.1817C63.8407 49.1817 63.2767 49.0681 62.7921 48.841C62.3076 48.6063 61.9025 48.2921 61.577 47.8984C61.2514 47.5047 61.0054 47.0542 60.8388 46.547C60.6798 46.0321 60.6003 45.4984 60.6003 44.9457Z" fill="white" style="fill:white;fill-opacity:1;"/>
</svg>
