<svg width="32" height="32" viewBox="0 0 32 32" fill="none" xmlns="http://www.w3.org/2000/svg">
<path d="M23.5 1.8631C21.263 0.673833 18.7102 -4.46301e-07 16 -3.27835e-07C13.2898 -2.0937e-07 10.737 0.673834 8.5 1.8631L8.5 30.1369C10.737 31.3262 13.2898 32 16 32C18.7102 32 21.263 31.3262 23.5 30.1369L23.5 1.8631Z" fill="#EEEEEE" style="fill:#EEEEEE;fill:color(display-p3 0.9333 0.9333 0.9333);fill-opacity:1;"/>
<path d="M21.5 0.970558C27.6271 3.21338 32 9.09611 32 16.0002C32 22.9042 27.6271 28.787 21.5 31.0298L21.5 0.970558Z" fill="#D80027" style="fill:#D80027;fill:color(display-p3 0.8471 0.0000 0.1529);fill-opacity:1;"/>
<path d="M10.5 0.970558L10.5 31.0298C4.37286 28.787 -3.55179e-07 22.9042 -6.56965e-07 16.0002C-9.58751e-07 9.09611 4.37285 3.21338 10.5 0.970558Z" fill="#6DA544" style="fill:#6DA544;fill:color(display-p3 0.4275 0.6471 0.2667);fill-opacity:1;"/>
</svg>
