<svg width="32" height="32" viewBox="0 0 32 32" fill="none" xmlns="http://www.w3.org/2000/svg">
<g clip-path="url(#clip0_31_914)">
<path fill-rule="evenodd" clip-rule="evenodd" d="M-8 0H40.0469V32.0031H-8V0Z" fill="#FF0000" style="fill:#FF0000;fill:color(display-p3 1.0000 0.0000 0.0000);fill-opacity:1;"/>
<path fill-rule="evenodd" clip-rule="evenodd" d="M6.59082 16.3204C7.44413 15.2826 9.21225 16.2973 10.6575 15.5516C8.94319 15.6439 8.013 14.7291 6.66 14.8598C8.05913 13.9988 9.25069 15.1365 10.8189 14.6753C8.74332 14.5061 8.83557 13.5759 6.95213 13.4453C8.628 12.7303 9.45057 14.1833 11.0957 13.8527C9.15844 13.4068 8.90475 12.2691 7.46719 12.0231C9.56588 11.7079 9.4275 12.9456 11.4878 13.0993C9.39675 12.2076 9.95025 11.4234 8.1975 10.7469C10.1578 10.7008 10.0271 12.0538 12.0028 12.4074C10.3116 11.3312 10.5191 10.3472 9.12 9.57844C10.7805 9.60919 10.9419 11.3081 12.6332 11.8309C11.1264 10.6393 11.5185 9.62457 10.2193 8.556C11.8644 8.94038 11.6261 10.4087 13.3404 11.3389C12.072 9.93207 12.5563 8.91732 11.4493 7.7565C13.0329 8.27157 12.4333 9.663 14.0784 10.9853C13.1329 9.43238 13.7171 8.44069 12.7869 7.12613C14.2629 7.89488 13.548 9.30938 14.9164 10.7239C14.2706 9.13257 14.9164 8.14088 14.2553 6.72638C15.516 7.67194 14.7703 9.18638 15.7851 10.6393C15.4161 8.64057 16.2771 8.31 16.008 6.56494C16.9613 7.74113 15.8927 8.91732 16.623 10.6393C16.5461 8.679 17.5839 8.21775 17.3994 6.64182C18.3527 8.05632 16.869 9.28632 17.4917 10.8008C17.6454 8.93269 18.8754 8.45607 18.8985 7.00313C19.6442 8.33307 18.0144 9.294 18.2835 11.0621C18.8139 9.1095 20.1208 8.87119 20.2823 7.55663C20.7281 9.09413 18.9446 9.81675 19.0523 11.5234C19.5827 9.79369 21.2124 9.58613 21.5507 8.31C21.7506 9.93975 20.1439 10.2319 19.698 12.0308C20.5436 10.5701 22.0196 10.4394 22.6808 9.27863C22.6269 10.893 20.8127 11.1006 20.2592 12.615C21.3047 11.3312 22.6116 11.5541 23.6571 10.4164C23.5494 11.877 21.7044 11.7924 20.7204 13.2992C21.8582 12.2537 23.5648 12.5689 24.4335 11.6694C24.3874 12.9533 22.1273 12.861 21.051 14.0064C22.3733 13.2915 24.0414 13.7143 25.0101 13.0378C24.8256 14.1679 22.4424 13.9142 21.2893 14.7906C22.8653 14.3524 24.0799 15.0212 25.3637 14.5369C24.741 15.6362 22.5731 14.9443 21.42 15.6593C22.7884 15.4286 24.2413 16.2512 25.4867 15.9898C25.0793 16.9354 22.7038 15.9283 21.4123 16.5279C22.9498 16.5049 23.9492 17.4889 25.3637 17.4197C24.5949 18.2807 22.5039 17.0968 21.2893 17.2967C22.773 17.6042 23.9031 18.8342 25.0331 18.8957C24.1106 19.6029 22.3809 17.9886 20.9741 18.1961C22.4194 18.5805 23.634 20.2256 24.4643 20.2641C23.5725 20.8791 21.8044 18.8573 20.5974 18.9264C22.0581 19.5953 22.7346 21.2711 23.7032 21.5094C22.5116 21.8938 21.3354 19.6875 20.0516 19.6106C21.5353 20.5485 21.6199 21.9784 22.7653 22.6088C21.5661 22.9163 20.7051 20.4178 19.4366 20.2103C20.6589 21.102 20.8358 23.0162 21.6506 23.6235C20.4206 23.685 19.9824 21.0789 18.7294 20.7023C19.8056 21.6017 19.5443 23.5466 20.3745 24.3846C19.1061 24.1232 19.2675 21.8477 17.9376 21.0789C18.8908 22.2936 18.3988 24.0079 19.0292 24.9765C17.7838 24.4768 18.3296 22.4396 17.1381 21.2865C17.7838 22.578 17.0919 24.0771 17.5993 25.3224C16.4693 24.7689 17.2303 22.3628 16.3616 21.4018C16.7614 22.8932 16.0234 24.1232 16.3232 25.4531C15.1624 24.1078 16.5 22.7625 15.4929 21.3788C15.7543 22.9624 14.655 24.054 14.8318 25.3763C13.9093 24.3 15.3238 22.5703 14.6089 21.2173C14.7626 22.7625 13.3404 24.1155 13.4404 25.0918C12.6947 23.8464 14.2706 22.3704 13.8478 20.9483C13.7556 22.4243 12.3257 23.2238 12.0566 24.5614C11.5723 23.0854 13.2789 22.0168 13.1329 20.5639C12.6409 21.9476 11.2571 22.5011 10.7651 23.8388C10.3654 22.3628 12.3872 21.5786 12.441 20.0258C11.8183 21.4864 10.1578 21.8016 9.612 22.9163C9.40444 21.4556 11.7261 20.7945 11.8106 19.4031C11.0649 20.7407 9.25069 20.7868 8.62032 21.8554C8.52807 20.3948 10.9727 20.2103 11.3571 18.6804C10.6114 19.8182 8.62032 19.6798 7.79775 20.6023C7.92844 19.2416 10.5653 19.1571 10.9881 17.9424C10.0041 18.888 8.18213 18.4959 7.14432 19.2493C7.72088 17.9117 10.2039 18.1961 10.7574 17.2275C9.66582 17.8041 7.72088 17.2506 6.75994 17.8194C7.63632 16.5587 9.56588 17.3121 10.6575 16.4357C8.88169 16.6971 7.81313 15.9898 6.58313 16.3204H6.59082Z" fill="#FFFF00" style="fill:#FFFF00;fill:color(display-p3 1.0000 1.0000 0.0000);fill-opacity:1;"/>
<path fill-rule="evenodd" clip-rule="evenodd" d="M22.2425 16.0055C22.2718 16.838 22.1332 17.668 21.8348 18.4458C21.5364 19.2236 21.0845 19.9333 20.5058 20.5327C19.9272 21.1321 19.2338 21.6087 18.467 21.9343C17.7002 22.2599 16.8756 22.4276 16.0426 22.4276C15.2095 22.4276 14.3849 22.2599 13.6181 21.9343C12.8513 21.6087 12.1579 21.1321 11.5793 20.5327C11.0007 19.9333 10.5487 19.2236 10.2503 18.4458C9.95193 17.668 9.81327 16.838 9.84259 16.0055C9.89917 14.3989 10.5772 12.8771 11.7337 11.7605C12.8902 10.644 14.435 10.02 16.0426 10.02C17.6501 10.02 19.1949 10.644 20.3514 11.7605C21.508 12.8771 22.1859 14.3989 22.2425 16.0055Z" fill="#FFFF00" style="fill:#FFFF00;fill:color(display-p3 1.0000 1.0000 0.0000);fill-opacity:1;"/>
<path fill-rule="evenodd" clip-rule="evenodd" d="M21.4429 16.0207C21.4429 16.7284 21.3035 17.4292 21.0327 18.083C20.7619 18.7368 20.3649 19.3309 19.8645 19.8313C19.3641 20.3317 18.77 20.7286 18.1162 20.9994C17.4624 21.2703 16.7616 21.4096 16.0539 21.4096C15.3463 21.4096 14.6455 21.2703 13.9917 20.9994C13.3379 20.7286 12.7438 20.3317 12.2434 19.8313C11.743 19.3309 11.346 18.7368 11.0752 18.083C10.8044 17.4292 10.665 16.7284 10.665 16.0207C10.665 14.5905 11.2332 13.2188 12.2445 12.2074C13.2559 11.1961 14.6275 10.6279 16.0578 10.6279C17.488 10.6279 18.8597 11.1961 19.8711 12.2074C20.8824 13.2188 21.4506 14.5905 21.4506 16.0207H21.4429Z" fill="#FF0000" style="fill:#FF0000;fill:color(display-p3 1.0000 0.0000 0.0000);fill-opacity:1;"/>
<path fill-rule="evenodd" clip-rule="evenodd" d="M20.6972 16.0282C20.6972 17.2566 20.2092 18.4347 19.3406 19.3033C18.472 20.1719 17.2939 20.6599 16.0655 20.6599C14.8371 20.6599 13.659 20.1719 12.7903 19.3033C11.9217 18.4347 11.4337 17.2566 11.4337 16.0282C11.4337 14.7998 11.9217 13.6217 12.7903 12.7531C13.659 11.8845 14.8371 11.3965 16.0655 11.3965C17.2939 11.3965 18.472 11.8845 19.3406 12.7531C20.2092 13.6217 20.6972 14.7998 20.6972 16.0282V16.0282Z" fill="#FFFF00" style="fill:#FFFF00;fill:color(display-p3 1.0000 1.0000 0.0000);fill-opacity:1;"/>
<path fill-rule="evenodd" clip-rule="evenodd" d="M12.1259 12.9919C13.4098 12.9688 15.0011 13.0841 16.0543 13.9297C17.1824 13.2236 18.5113 12.9076 19.8365 13.0303L20.5284 14.2911C19.529 14.1911 18.5527 14.3295 17.3996 14.7984C18.1005 15.3155 18.6639 15.9966 19.0405 16.7819C19.4171 17.5673 19.5954 18.433 19.5598 19.3033C19.3906 19.5186 19.1293 19.7492 18.9601 19.9567C19.2061 18.1809 18.2683 16.1899 16.8999 15.1444C18.0069 16.7511 18.668 18.1886 18.4835 20.1797L17.8531 20.5717C18.1453 18.819 17.7378 16.7664 16.4386 15.5749C16.935 16.3086 17.2815 17.1332 17.4582 18.0013C17.635 18.8694 17.6386 19.7638 17.4688 20.6332C17.2689 20.6947 16.9614 20.8639 16.7538 20.9254C16.9991 20.1046 17.0656 19.2407 16.9489 18.392C16.8322 17.5434 16.535 16.7295 16.0773 16.0054C15.6283 16.7247 15.3377 17.5314 15.225 18.3718C15.1124 19.2123 15.1801 20.0671 15.4239 20.8792L14.7628 20.6871C14.4091 18.8036 14.9011 16.6896 15.7544 15.5826C14.8858 16.0899 14.0632 18.2501 14.2938 20.4564L13.7096 20.1874C13.4251 18.5422 14.1708 16.3974 15.2471 15.1597C14.0324 15.9285 13.0408 17.8042 13.2176 19.8261C13.0331 19.6646 12.8563 19.5801 12.6718 19.4186C12.4565 17.6505 13.4789 15.8747 14.6705 14.8061C13.6858 14.389 12.6159 14.2125 11.5494 14.2911C11.7416 13.8836 11.9338 13.407 12.1259 12.9996V12.9919Z" fill="#FF0000" style="fill:#FF0000;fill:color(display-p3 1.0000 0.0000 0.0000);fill-opacity:1;"/>
</g>
<defs>
<clipPath id="clip0_31_914">
<rect width="32" height="32" rx="16" fill="white" style="fill:white;fill-opacity:1;"/>
</clipPath>
</defs>
</svg>
