<svg width="81" height="54" viewBox="0 0 81 54" fill="none" xmlns="http://www.w3.org/2000/svg">
<path d="M11.4833 -0.129395V1.33473C11.4833 3.40173 11.1675 6.31084 10.5359 10.0621C9.92351 13.7941 9.28235 17.2965 8.61249 20.5693C7.94263 23.8229 7.4833 25.9665 7.23449 27C7.4833 28.0335 7.94263 30.1866 8.61249 33.4593C9.28235 36.7129 9.92351 40.2154 10.5359 43.9666C11.1675 47.6987 11.4833 50.5982 11.4833 52.6652V54.1293H8.55508V52.6652C8.55508 50.8661 8.28713 48.3207 7.75124 45.0288C7.21536 41.7178 6.63162 38.512 6.00004 35.4115C5.36845 32.2919 4.88998 29.9761 4.56462 28.4641H2.92825V54.1293H0V-0.129395H2.92825V25.5358H4.56462C4.88998 24.0047 5.36845 21.6889 6.00004 18.5884C6.63162 15.4879 7.21536 12.2917 7.75124 8.99985C8.28713 5.68882 8.55508 3.13378 8.55508 1.33473V-0.129395H11.4833Z" fill="white" style="fill:white;fill-opacity:1;"/>
<path d="M25.7801 -0.129395H28.7083V44.1101C28.7083 46.9618 28.1533 49.3446 27.0432 51.2585C25.9523 53.1724 24.5935 54.1293 22.9666 54.1293C21.3207 54.1293 19.9523 53.1724 18.8614 51.2585C17.7704 49.3446 17.225 46.9618 17.225 44.1101V-0.129395H20.1532V44.1101C20.1532 45.5264 20.3063 46.7704 20.6126 47.8422C20.9379 48.8948 21.3111 49.7178 21.7322 50.3111C22.1724 50.9044 22.5839 51.2011 22.9666 51.2011C23.3494 51.2011 23.7513 50.9044 24.1724 50.3111C24.6126 49.7178 24.9858 48.8948 25.292 47.8422C25.6174 46.7704 25.7801 45.5264 25.7801 44.1101V-0.129395Z" fill="white" style="fill:white;fill-opacity:1;"/>
<path d="M37.3782 25.3062C38.6222 24.8468 39.7419 23.8899 40.7371 22.4353C42.2491 20.0621 43.0051 17.3061 43.0051 14.1673C43.0051 11.0286 42.2491 8.28214 40.7371 5.92806C39.7419 4.45437 38.6222 3.49742 37.3782 3.05723V25.3062ZM41.5983 26.6842C41.7323 27.1435 42.1342 29.0191 42.8041 32.311C43.4931 35.6029 44.1821 39.268 44.8711 43.3063C45.5792 47.3446 45.9333 50.4642 45.9333 52.6652V54.1293H43.0051V52.6652C43.0051 50.7704 42.7084 48.0527 42.1151 44.512C41.5218 40.9713 40.8998 37.6029 40.2491 34.4067C39.5983 31.2105 39.139 29.0287 38.8711 27.8612C38.3926 28.0526 37.895 28.2057 37.3782 28.3205V54.1293H34.45V-0.129395H35.9141C38.6892 -0.129395 41.1103 1.3443 43.1773 4.29169C45.0146 7.16252 45.9333 10.4544 45.9333 14.1673C45.9333 17.8803 45.0146 21.1722 43.1773 24.043C42.6606 24.8277 42.096 25.5071 41.4835 26.0813L41.5983 26.6842Z" fill="white" style="fill:white;fill-opacity:1;"/>
<path d="M55.6654 34.0909H59.1391C58.5841 27.5263 58.0099 21.287 57.4166 15.3731C56.8042 21.287 56.2204 27.5263 55.6654 34.0909ZM58.852 1.16248C58.9669 2.06201 59.3688 5.79409 60.0578 12.3587C60.7468 18.9234 61.4166 26.1196 62.0674 33.9474C62.7372 41.7752 63.1009 48.0144 63.1583 52.6652V54.1293H60.23V52.6652C60.23 49.0479 59.943 43.8326 59.3688 37.0192H55.4358C54.8807 43.8326 54.6032 49.0479 54.6032 52.6652V54.1293H51.675V52.6652C51.675 48.3781 52.0195 42.2345 52.7085 34.2345C53.3975 26.2344 54.0769 18.9521 54.7468 12.3874C55.4358 5.80366 55.8377 2.06201 55.9525 1.16248L56.096 -0.129395H58.7372L58.852 1.16248Z" fill="white" style="fill:white;fill-opacity:1;"/>
<path d="M80.3833 -0.129395V1.33473C80.3833 3.40173 80.0675 6.31084 79.4359 10.0621C78.8235 13.7941 78.1823 17.2965 77.5124 20.5693C76.8426 23.8229 76.3832 25.9665 76.1344 27C76.3832 28.0335 76.8426 30.1866 77.5124 33.4593C78.1823 36.7129 78.8235 40.2154 79.4359 43.9666C80.0675 47.6987 80.3833 50.5982 80.3833 52.6652V54.1293H77.455V52.6652C77.455 50.8661 77.1871 48.3207 76.6512 45.0288C76.1153 41.7178 75.5316 38.512 74.9 35.4115C74.2684 32.2919 73.7899 29.9761 73.4646 28.4641H71.8282V54.1293H68.8999V-0.129395H71.8282V25.5358H73.4646C73.7899 24.0047 74.2684 21.6889 74.9 18.5884C75.5316 15.4879 76.1153 12.2917 76.6512 8.99985C77.1871 5.68882 77.455 3.13378 77.455 1.33473V-0.129395H80.3833Z" fill="white" style="fill:white;fill-opacity:1;"/>
</svg>
