<svg width="32" height="32" viewBox="0 0 32 32" fill="none" xmlns="http://www.w3.org/2000/svg">
<circle cx="16" cy="16" r="16" fill="#338AF3" style="fill:#338AF3;fill:color(display-p3 0.2000 0.5412 0.9529);fill-opacity:1;"/>
<path d="M10.4797 16.1733C11.5352 18.1404 13.6115 19.478 16.0002 19.478C18.3886 19.478 20.4641 18.1402 21.5197 16.1733H25.0432C25.0432 17.422 23.9557 18.4351 22.7072 18.4351H22.7824C22.7822 19.6835 21.7702 20.6958 20.5217 20.6958C20.5215 21.9443 19.5095 22.9565 18.2609 22.9565H13.7394C12.4909 22.9565 11.4789 21.9443 11.4787 20.6958C10.2302 20.6958 9.21722 19.6835 9.21698 18.4351H9.29218C8.04379 18.4348 6.95624 17.4219 6.95624 16.1733H10.4797Z" fill="#FFDA44" style="fill:#FFDA44;fill:color(display-p3 1.0000 0.8549 0.2667);fill-opacity:1;"/>
<path d="M20.7822 13.2172L18.8281 14.1363L19.8687 16.0288L17.7468 15.6229L17.4779 17.7664L16 16.1898L14.522 17.7664L14.2532 15.6229L12.1313 16.0287L13.1718 14.1363L11.2178 13.2172L13.1719 12.298L12.1313 10.4056L14.2531 10.8115L14.5221 8.66797L16 10.2445L17.478 8.66797L17.7468 10.8115L19.8687 10.4056L18.8282 12.2981L20.7822 13.2172Z" fill="#FFDA44" style="fill:#FFDA44;fill:color(display-p3 1.0000 0.8549 0.2667);fill-opacity:1;"/>
</svg>
