<svg width="1152" height="700" viewBox="0 0 1152 700" fill="none" xmlns="http://www.w3.org/2000/svg">
<path d="M463.473 280.565L469.456 278.264L476.359 268.139V261.236L483.263 257.093L492.468 250.65L502.132 254.792L516.4 246.048L526.065 244.667L537.11 246.048L546.775 241.906L550.917 250.65L546.775 254.792L557.361 261.236H563.344L570.247 268.139L579.452 271.361L584.054 268.139V261.236H594.179L606.145 268.139H618.111H629.157L635.14 280.565L637.902 287.469L642.964 297.134L646.646 306.339V313.702L653.089 319.225L656.771 330.271L664.135 335.333L670.578 343.157L673.34 350.521L678.402 353.743L686.686 355.584L702.334 350.521V362.027L695.431 373.533L688.987 383.658L680.243 391.942L670.578 402.988L662.294 412.192L656.771 422.318L659.533 434.744L664.135 440.727V450.852V460.057L659.533 467.881L650.788 470.182L646.646 476.165L640.663 483.068L642.964 494.574L640.663 499.637L634.22 504.239L630.998 508.381V512.984L629.617 518.506L618.572 531.853L608.447 538.757L599.702 542.899L595.1 538.757L589.117 542.899H581.293L578.071 538.757V531.853L574.389 523.569L567.025 514.825V508.381L564.264 494.574L560.122 483.068L554.139 473.864V465.58L557.361 457.756L560.122 448.551V440.727V434.744L557.361 427.84L554.139 417.715L550.917 414.033L546.775 407.59V400.226V389.181V383.658L540.332 378.595H531.587L527.906 373.533L521.922 370.311L514.099 373.533L504.434 376.294H492.468L480.501 378.595L472.677 376.294L461.172 367.089L457.95 362.027L453.808 355.584L450.126 350.521L447.825 347.299V341.316L444.603 336.714L447.825 331.191V321.526V316.924V311.401V304.958L453.808 297.134L457.95 287.469L463.473 280.565Z" fill="url(#paint0_linear_263_737)" stroke="url(#paint1_linear_263_737)" style="" stroke-dasharray="2 2"/>
<path opacity="0.5" d="M693.59 454.074L684.845 463.739L676.101 468.802V480.768L671.959 489.512V498.717L676.101 503.779H684.845L689.908 498.717V489.512L695.891 474.785L698.652 463.739V454.074L695.891 449.472L693.59 454.074Z" stroke="#E0DDDD" style="stroke:#E0DDDD;stroke:color(display-p3 0.8792 0.8682 0.8682);stroke-opacity:1;" stroke-dasharray="2 2"/>
<path d="M1018.98 577.417L1022.2 569.593H1029.56L1033.24 572.354L1029.56 577.417L1022.2 580.178L1018.98 577.417Z" stroke="#E0DDDD" style="stroke:#E0DDDD;stroke:color(display-p3 0.8792 0.8682 0.8682);stroke-opacity:1;" stroke-dasharray="2 2"/>
<path d="M974.333 533.234L962.827 538.297H947.639L941.196 541.978L934.292 545.66L931.071 541.978V538.297L934.292 528.171V514.364V500.097L938.895 491.813L955.463 482.148H962.827L974.333 470.642L977.554 466.5L983.537 460.057L993.202 456.835L999.645 460.057L1002.87 455.454L1008.85 451.312L1019.9 448.091C1029.84 446.618 1028.95 450.852 1027.26 453.153L1022.2 460.057L1027.26 463.739L1039.23 470.642L1047.51 460.057V453.153L1052.57 445.79L1054.87 453.153L1060.86 460.057V472.483L1065 478.006L1071.9 491.813L1078.81 500.097V508.381L1075.12 523.569L1068.22 533.234L1060.86 538.297L1054.87 549.802L1047.51 555.786H1040.61L1037.38 559.007L1032.78 561.769L1027.26 559.007H1019.9L1014.37 555.786V549.802L1012.07 545.66L1007.47 538.297L1002.87 541.978L997.344 533.234L991.361 530.933H986.299L974.333 533.234Z" fill="url(#paint2_linear_263_737)" stroke="url(#paint3_linear_263_737)" style="" stroke-dasharray="2 2"/>
<path opacity="0.5" d="M1094.91 592.604H1084.79C1084.79 589.291 1088.47 585.087 1090.31 583.4L1101.82 577.417L1111.94 574.195L1120.69 568.212V574.195L1115.16 577.417L1111.94 583.4H1107.34L1101.82 588.922L1094.91 592.604Z" fill="#111111" stroke="#E0DDDD" style="fill:#111111;fill:color(display-p3 0.0667 0.0667 0.0667);fill-opacity:1;stroke:#E0DDDD;stroke:color(display-p3 0.8792 0.8682 0.8682);stroke-opacity:1;" stroke-dasharray="2 2"/>
<path opacity="0.5" d="M1133.57 571.434H1127.59L1129.89 564.99V559.928L1136.34 557.166L1139.1 547.501L1141.86 554.405L1146 559.928L1139.1 564.99L1133.57 571.434Z" stroke="#E0DDDD" style="stroke:#E0DDDD;stroke:color(display-p3 0.8792 0.8682 0.8682);stroke-opacity:1;" stroke-dasharray="2 2"/>
<path d="M293.186 617.917L305.612 624.821L296.408 627.122L290.885 624.821H284.442L286.566 617.917H284.442L272.476 612.854L266.493 603.19L258.669 592.144L261.89 588.002V582.019L258.669 576.036L252.225 567.751V559.467L249.924 537.376L246.702 517.586V499.177V482.148L237.498 471.563L225.992 464.199L218.628 454.074L211.264 442.108L204.821 426.92L199.759 424.619V414.033L204.821 409.891L199.759 403.908L204.821 394.243L211.264 384.118L214.486 379.516V373.072L211.264 362.027V358.805L214.486 362.027L218.628 358.805L223.23 353.282H228.293L232.895 347.299H237.498L238.826 352.079L243.021 349.6H249.924L254.066 353.282L261.43 355.584L270.174 353.282L275.697 355.584L286.283 368.47L290.885 373.072H298.249L308.834 376.294L313.436 384.118L316.658 391.022V396.544L322.181 399.766L327.243 403.908H333.687L336.908 406.209L343.352 409.891H353.017L360.841 414.033L369.585 419.096L374.648 421.397V426.92V434.744L367.284 446.71L360.841 454.074V464.199V478.466L353.017 491.813L346.573 494.114L336.908 499.177L330.005 505.62V512.063L327.243 524.489L319.419 537.376L313.436 542.899H307.914H302.851L305.612 547.961V555.325L299.629 559.467H293.186V567.751H284.442V572.814L288.124 576.036L284.442 584.32V588.002V592.144L288.124 597.667V603.19L284.442 608.712L288.124 612.854L286.566 617.917H293.186Z" fill="url(#paint4_linear_263_737)" stroke="url(#paint5_linear_263_737)" style="" stroke-dasharray="2 2"/>
<path opacity="0.5" d="M1075.58 432.903L1085.71 442.568L1082.49 445.79L1075.58 442.568L1067.76 435.664L1063.16 432.903H1058.1L1054.87 437.966L1045.67 435.664L1040.61 432.903H1036L1040.61 426L1036 421.857L1023.12 416.795L1016.21 414.494V409.891L1011.61 402.067H1023.12V405.749L1028.18 414.494L1032.78 409.891L1040.61 405.749L1048.89 409.891L1063.16 414.494L1072.82 421.857L1075.58 432.903Z" fill="#111111" stroke="#E0DDDD" style="fill:#111111;fill:color(display-p3 0.0667 0.0667 0.0667);fill-opacity:1;stroke:#E0DDDD;stroke:color(display-p3 0.8792 0.8682 0.8682);stroke-opacity:1;" stroke-dasharray="2 2"/>
<path d="M945.338 380.897L936.133 387.8L926.928 392.402L928.769 402.988L933.372 410.352L945.338 414.954H954.543V410.352L961.446 400.687L964.207 397.005V390.561L961.446 385.039L964.207 377.215L961.446 372.612H954.543L945.338 380.897Z" fill="#111111" stroke="#E0DDDD" style="fill:#111111;fill:color(display-p3 0.0667 0.0667 0.0667);fill-opacity:1;stroke:#E0DDDD;stroke:color(display-p3 0.8792 0.8682 0.8682);stroke-opacity:1;" stroke-dasharray="2 2"/>
<path d="M938.434 426L948.56 431.983L943.497 434.744L933.372 431.983H925.548H916.343L914.042 426H921.866H929.69H938.434Z" stroke="#E0DDDD" style="stroke:#E0DDDD;stroke:color(display-p3 0.8792 0.8682 0.8682);stroke-opacity:1;" stroke-dasharray="2 2"/>
<path d="M914.502 411.733V418.636C914.502 424.159 908.059 423.392 904.837 422.318L898.394 415.414L892.411 402.528L883.206 389.181L875.382 381.817V375.374L890.57 381.817L895.172 389.181L904.837 396.085V400.687L914.502 411.733Z" fill="#111111" stroke="#E0DDDD" style="fill:#111111;fill:color(display-p3 0.0667 0.0667 0.0667);fill-opacity:1;stroke:#E0DDDD;stroke:color(display-p3 0.8792 0.8682 0.8682);stroke-opacity:1;" stroke-dasharray="2 2"/>
<path opacity="0.5" d="M964.208 333.493L966.509 324.288C967.429 320.606 970.267 322.754 971.571 324.288V333.493L976.634 337.635L982.157 346.379L989.981 355.584L993.202 364.328V374.453H986.759L982.157 369.391L976.634 357.885L971.571 346.379L964.208 333.493Z" fill="#111111" stroke="#E0DDDD" style="fill:#111111;fill:color(display-p3 0.0667 0.0667 0.0667);fill-opacity:1;stroke:#E0DDDD;stroke:color(display-p3 0.8792 0.8682 0.8682);stroke-opacity:1;" stroke-dasharray="2 2"/>
<path d="M896.553 385.499L892.411 373.073L884.587 361.107V346.839L890.11 352.362V358.345L892.411 363.408L896.553 368.47L904.377 373.073L907.599 380.897V391.942H904.377L896.553 385.499Z" stroke="#E0DDDD" style="stroke:#E0DDDD;stroke:color(display-p3 0.8792 0.8682 0.8682);stroke-opacity:1;"/>
<path d="M856.973 312.782L852.831 304.958L838.564 307.259L835.342 316.464L827.978 321.527L814.171 334.413L811.87 341.777V356.044C810.765 364.881 804.66 363.408 801.745 361.567L793.461 344.999L783.335 321.527V310.021H777.352H770.909V302.657H764.006L756.182 291.611L751.119 295.753L738.232 291.611H726.727L719.823 286.089L703.715 284.248L696.351 275.503L691.289 271.361L688.067 275.503L693.59 281.946L696.351 291.611H703.715L708.777 298.055L717.062 291.611L721.664 295.753L731.329 302.657V310.021L723.965 321.527L714.3 326.129L703.715 332.112L693.59 337.635L685.766 344.999H676.101L671.499 337.635V329.351L666.436 321.527L657.691 312.782V304.958L643.884 288.85L639.742 277.804L634.68 281.946L629.157 266.759H637.441L639.742 255.713V245.588L631.918 248.349L621.793 245.588H610.748L604.765 233.622V229.48H599.242L593.719 233.622L596.48 240.065L593.719 245.588L587.276 242.366L589.577 237.764L581.753 233.622L578.531 221.656L570.247 216.593L558.281 208.309C553.126 203.523 554.599 208.769 555.98 211.991L561.963 218.894C566.719 222.423 575.494 229.48 572.548 229.48C569.603 229.48 569.787 236.537 570.247 240.065L561.963 229.48L549.076 218.894L542.633 214.292L531.127 218.894H524.684L520.542 226.258L510.877 233.622V242.366L499.371 245.588H488.786L480.501 240.065L483.723 218.894H502.593L506.735 214.292V204.627L499.371 196.343L510.877 194.042L520.542 188.519L533.428 178.394H538.491L542.633 174.252V165.507L547.696 161.365V167.348L553.679 165.507V159.064L549.076 155.842L542.633 159.064L535.729 155.842V143.876L555.98 128.688L570.247 118.103L581.753 111.66H601.543L613.509 118.103L631.918 120.404C637.809 125.191 634.373 127.921 631.918 128.688H624.555L613.509 125.007L624.555 134.211H631.918L637.441 128.688L643.884 125.007L646.646 120.404L654.47 125.007L666.436 120.404H682.084L698.192 118.103H708.317L702.794 111.66L705.096 107.057H714.761L721.204 111.66L730.869 107.057L738.232 102.455H748.358V97.3926L763.545 93.7107H773.21L778.273 90.0288H787.017L795.762 93.7107H808.648L811.87 97.3926L808.648 102.455L825.677 104.756H829.359H837.643H845.467H860.195L876.763 111.66H886.428H894.252L896.553 104.756L911.741 107.057L929.69 111.66H945.338H955.923L967.889 118.103H990.441L994.583 115.342H1005.63L1022.66 118.103L1037.84 122.705L1047.51 126.387H1058.1L1064.54 133.291H1051.19L1044.29 128.688L1037.84 133.291L1047.51 137.893V142.956L1037.84 149.859H1028.18C1018.61 152.437 1020.51 156.763 1022.66 158.604L1030.48 161.825L1032.78 173.791V186.218H1028.18L1016.21 173.791L1008.39 161.825L1012.07 146.638L1008.39 142.956L1002.87 146.638H996.884H990.441V154.462H979.395H962.827L955.923 158.604L951.321 169.649L958.685 173.791H966.048L976.174 177.934H981.696L990.441 186.218L996.884 192.661V197.724L999.646 206.928L994.583 204.167L990.441 197.724L983.998 188.519H981.696L983.998 197.724V206.928L979.395 217.974H972.031L967.889 221.656L966.048 227.179V231.321L967.889 235.923L976.174 241.906L979.395 248.349L976.174 253.412H967.889L966.048 245.128L955.923 238.224L951.321 231.321C945.43 234.634 943.344 232.701 943.037 231.321L937.514 227.179L929.69 235.923L937.514 241.906H943.037L951.321 245.128L940.736 252.031L951.321 261.696L955.923 268.6L958.685 278.265L955.923 290.691L951.321 299.896L940.736 304.958L929.69 307.259L923.707 312.782L917.724 307.259L911.741 311.401L908.979 318.765L917.724 329.351L923.707 339.476V350.982L917.724 356.044L913.582 361.567H908.979V356.044L901.155 350.982L891.951 344.999H888.729V350.982L884.127 344.999L880.445 334.413L876.763 329.351L872.161 332.112H867.558V326.129L864.337 318.765L856.973 312.782Z" fill="url(#paint6_linear_263_737)" stroke="url(#paint7_linear_263_737)" style="" stroke-dasharray="2 2"/>
<path opacity="0.5" d="M987.219 264.918L984.918 258.474L986.299 254.332L990.441 250.19H995.964L1002.41 246.048L1008.85 238.684L1006.09 232.701L1001.03 223.036V217.053V210.15L1007.01 214.292L1015.29 217.053L1012.99 221.656H1007.01V228.559H1011.15L1015.29 235.003V240.065L1017.13 246.048V253.412H1008.85L1003.79 258.474L998.265 257.554H994.123L990.441 255.713L988.14 257.554L991.821 261.696L990.441 267.219L987.219 264.918Z" fill="#111111" stroke="#E0DDDD" style="fill:#111111;fill:color(display-p3 0.0667 0.0667 0.0667);fill-opacity:1;stroke:#E0DDDD;stroke:color(display-p3 0.8792 0.8682 0.8682);stroke-opacity:1;" stroke-dasharray="2 2"/>
<path d="M698.192 247.889L687.146 240.525V229.48L675.641 217.974V211.531L687.146 200.945L695.891 207.849L692.209 211.531H687.146V217.974L695.891 222.116H701.874L705.096 227.179L698.192 229.48L701.874 235.923L705.096 242.827L698.192 247.889Z" fill="#111111" stroke="#E0DDDD" style="fill:#111111;fill:color(display-p3 0.0667 0.0667 0.0667);fill-opacity:1;stroke:#E0DDDD;stroke:color(display-p3 0.8792 0.8682 0.8682);stroke-opacity:1;" stroke-dasharray="2 2"/>
<path d="M626.856 224.877L616.27 228.559L609.827 219.355L612.589 211.07L621.793 203.707L626.856 211.07H634.22V203.707H642.964V211.07L650.788 216.133L658.152 224.877L650.788 228.559L639.282 224.877H626.856Z" fill="#111111" stroke="#E0DDDD" style="fill:#111111;fill:color(display-p3 0.0667 0.0667 0.0667);fill-opacity:1;stroke:#E0DDDD;stroke:color(display-p3 0.8792 0.8682 0.8682);stroke-opacity:1;" stroke-dasharray="2 2"/>
<path d="M509.496 168.268L517.32 179.774L520.542 182.536L517.32 186.678L506.274 189.899H497.53L500.291 182.536V179.774L506.274 173.331L500.291 168.268V164.126V159.524H506.274L509.496 168.268Z" stroke="#E0DDDD" style="stroke:#E0DDDD;stroke:color(display-p3 0.8792 0.8682 0.8682);stroke-opacity:1;" stroke-dasharray="2 2"/>
<path d="M484.183 174.712L491.547 171.49C497.438 168.913 496.149 172.564 494.769 174.712L491.547 181.616L484.183 185.297V174.712Z" stroke="#E0DDDD" style="stroke:#E0DDDD;stroke:color(display-p3 0.8792 0.8682 0.8682);stroke-opacity:1;" stroke-dasharray="2 2"/>
<path opacity="0.5" d="M451.967 133.29L462.092 130.069H473.598L478.66 133.29L468.535 139.274H457.49L451.967 133.29Z" stroke="#E0DDDD" style="stroke:#E0DDDD;stroke:color(display-p3 0.8792 0.8682 0.8682);stroke-opacity:1;" stroke-dasharray="2 2"/>
<path d="M367.744 129.609L372.346 122.245C378.606 119.668 378.636 114.421 377.869 112.12L372.346 101.995L362.221 93.7106H354.397L346.573 90.489V85.4264H362.221L372.346 80.3638L386.614 77.6024L409.165 80.3638L422.972 75.3013H449.666H468.535L479.581 80.3638L472.678 90.489L468.535 98.313L459.791 101.995L452.887 106.137L459.791 112.12L452.887 115.802L440.001 119.944L430.796 122.245L422.972 125.467L409.165 129.609L396.279 136.512L386.614 149.859H377.869L367.744 142.495V129.609Z" fill="url(#paint8_linear_263_737)" stroke="url(#paint9_linear_263_737)" style="" stroke-dasharray="2 2"/>
<path opacity="0.5" d="M318.039 82.6649L309.294 90.4889L320.34 94.631L329.084 90.4889L340.13 86.807L360.38 82.6649L373.727 73L349.795 75.7614H333.687V82.6649H329.084H318.039Z" stroke="#E0DDDD" style="stroke:#E0DDDD;stroke:color(display-p3 0.8792 0.8682 0.8682);stroke-opacity:1;" stroke-dasharray="2 2"/>
<path opacity="0.5" d="M296.408 102.915H287.203L277.998 107.978L287.203 113.5H296.408H306.993L315.277 123.626V126.847H306.993L301.47 133.29L306.993 140.194L318.039 143.416L324.942 136.972V130.069H328.624C338.933 132.646 338.749 128.995 337.369 126.847L331.846 119.483L324.942 111.199L318.039 107.978H312.516L306.993 105.216L296.408 102.915Z" stroke="#E0DDDD" style="stroke:#E0DDDD;stroke:color(display-p3 0.8792 0.8682 0.8682);stroke-opacity:1;" stroke-dasharray="3 3"/>
<path opacity="0.5" d="M198.378 99.6934L191.474 102.915L183.19 106.137L185.952 111.199L191.474 106.137H200.679L204.361 111.199L198.378 118.563H206.662H212.185H219.549L227.833 116.722L237.498 115.341V111.199V106.137H234.276H230.134L225.992 102.915L221.39 106.137L215.407 102.915L206.662 99.6934H198.378Z" stroke="#E0DDDD" style="stroke:#E0DDDD;stroke:color(display-p3 0.8792 0.8682 0.8682);stroke-opacity:1;" stroke-dasharray="2 2"/>
<path d="M328.624 192.201L337.369 197.723L328.624 200.485H319.88L315.738 197.723L319.88 194.502L328.624 186.678V192.201Z" stroke="#E0DDDD" style="stroke:#E0DDDD;stroke:color(display-p3 0.8792 0.8682 0.8682);stroke-opacity:1;" stroke-dasharray="3 3"/>
<path d="M255.907 226.718L239.799 239.145L237.498 243.747V253.872L225.992 258.014L218.628 263.997L209.884 269.98L213.566 280.566V288.85L207.583 292.072L204.821 288.85V276.884L196.537 272.742L189.633 269.98L179.048 276.884L166.161 272.742L151.434 280.566L148.212 288.85L143.15 305.879L148.212 316.464L155.576 322.907L166.161 319.225L172.605 310.481C181.809 307.536 180.736 311.708 179.048 314.163L174.906 329.351L179.048 332.572H189.633V350.061L198.838 360.647H207.583L198.838 366.63L187.332 360.647L179.048 350.061L174.906 342.237H170.304L158.337 337.635L151.434 329.351H133.025L112.774 316.464V305.879L104.03 292.072L96.6661 280.566V269.98H92.0638V276.884L96.6661 285.628V300.816L92.0638 295.293L87.9217 285.628L84.7 272.742V263.997L77.3363 253.872L74.1147 229.94L84.7 215.673C88.6887 210.61 97.5866 200.117 101.268 198.644C105.871 196.803 100.348 188.059 92.0638 188.059C92.0638 182.168 95.132 169.649 96.6661 164.127L92.0638 158.143L82.3989 151.24L69.5123 146.177L54.7848 151.24H50.1825L34.5345 158.143L6 169.189L22.1082 155.842L16.1252 151.24L22.1082 148.939L26.2503 141.575H34.5345L41.438 136.973C36.6516 134.764 37.2959 131.45 38.2164 130.069H47.4211L54.7848 126.387C52.5757 120.496 57.853 119.024 60.7679 119.024L66.7509 116.262L84.7 112.12H98.0468L129.803 116.262L142.69 121.325L161.559 116.262H173.525H188.253L201.139 123.626L213.566 126.387V123.626L224.611 121.325L230.594 123.626L239.799 121.325H246.702V116.262H251.305V121.325L258.208 116.262V112.12L266.032 108.898L268.333 116.262L272.476 121.325L283.521 116.262H290.425V121.325L283.521 126.387H272.476L269.924 130.578L279.839 133.751L277.078 139.734L266.032 136.973L269.924 130.578L268.333 130.069L261.89 133.751L251.305 136.973L243.021 141.575L230.594 146.177L224.611 155.842L233.816 162.286L239.799 166.888L249.464 169.189L246.702 180.235L251.305 185.758L258.208 180.235V174.252L266.032 170.57L275.237 162.286V155.842L279.839 146.177L287.663 141.575L302.851 146.177V151.24L307.453 158.143L319.88 151.24L322.641 166.888L327.704 174.252L334.607 176.553L327.704 182.996L317.579 188.059H307.453H294.567L290.425 195.422H298.249L294.567 205.087L305.152 209.69L294.567 215.673H287.663V209.69H283.521L272.476 215.673L266.032 223.497L255.907 226.718Z" fill="url(#paint10_linear_263_737)" stroke="url(#paint11_linear_263_737)" style="" stroke-dasharray="2 2"/>
<path d="M243.021 322.447H230.134L233.816 315.083H238.418L251.305 317.844L243.021 322.447Z" fill="#111111" stroke="#E0DDDD" style="fill:#111111;fill:color(display-p3 0.0667 0.0667 0.0667);fill-opacity:1;stroke:#E0DDDD;stroke:color(display-p3 0.8792 0.8682 0.8682);stroke-opacity:1;" stroke-dasharray="2 2"/>
<path opacity="0.5" d="M211.264 301.736H196.077L200.219 304.958L208.043 309.1L214.946 314.163L229.214 311.861L224.611 309.1L211.264 301.736Z" fill="#111111" stroke="#E0DDDD" style="fill:#111111;fill:color(display-p3 0.0667 0.0667 0.0667);fill-opacity:1;stroke:#E0DDDD;stroke:color(display-p3 0.8792 0.8682 0.8682);stroke-opacity:1;" stroke-dasharray="2 2"/>
<path d="M204.821 205.087H217.708L209.424 211.991L204.821 222.116L207.122 226.258L212.645 222.116L217.708 209.69H225.992V217.053L235.657 211.991V205.087H230.594L225.992 202.326L221.39 197.263H209.424L204.821 205.087Z" stroke="#E0DDDD" style="stroke:#E0DDDD;stroke:color(display-p3 0.8792 0.8682 0.8682);stroke-opacity:1;" stroke-dasharray="2 2"/>
<path d="M285.362 96.4717L307.914 100.614L312.976 96.4717H299.629L291.345 92.3296L285.362 96.4717Z" stroke="#E0DDDD" style="stroke:#E0DDDD;stroke:color(display-p3 0.8792 0.8682 0.8682);stroke-opacity:1;" stroke-dasharray="2 2"/>
<path d="M310.215 78.5229L306.993 84.9662H300.55L294.107 82.6651L300.55 78.5229H310.215Z" stroke="#E0DDDD" style="stroke:#E0DDDD;stroke:color(display-p3 0.8792 0.8682 0.8682);stroke-opacity:1;" stroke-dasharray="2 2"/>
<path d="M564.264 168.729L568.406 160.905L571.168 155.382L573.469 151.24L568.406 145.717V140.654L578.071 137.433L584.054 128.228L590.497 133.291L581.753 140.654L584.054 148.939H599.702L605.685 151.24L599.702 155.382H590.497V160.905H584.054V168.729L578.071 172.871H573.469L564.264 176.092L559.662 172.871H549.997L555.98 168.729H564.264Z" fill="#111111" stroke="#E0DDDD" style="fill:#111111;fill:color(display-p3 0.0667 0.0667 0.0667);fill-opacity:1;stroke:#E0DDDD;stroke:color(display-p3 0.8792 0.8682 0.8682);stroke-opacity:1;" stroke-dasharray="2 2"/>
<path opacity="0.5" d="M964.208 411.272L968.35 400.687C966.141 397.373 969.27 394.09 971.111 392.863C971.111 390.654 983.077 391.942 989.06 392.863C989.06 400.227 980.469 397.772 976.174 395.624L972.952 398.846L974.333 403.448H981.236L976.174 407.59L978.935 414.034L976.174 417.255L972.952 411.272L971.111 414.034V422.318L964.208 420.937V411.272Z" fill="#111111" stroke="#E0DDDD" style="fill:#111111;fill:color(display-p3 0.0667 0.0667 0.0667);fill-opacity:1;stroke:#E0DDDD;stroke:color(display-p3 0.8792 0.8682 0.8682);stroke-opacity:1;" stroke-dasharray="2 2"/>
<defs>
<linearGradient id="paint0_linear_263_737" x1="573.469" y1="241.906" x2="573.469" y2="542.899" gradientUnits="userSpaceOnUse">
<stop stop-color="#131313" style="stop-color:#131313;stop-color:color(display-p3 0.0727 0.0727 0.0727);stop-opacity:1;"/>
<stop offset="1" stop-color="#101010" style="stop-color:#101010;stop-color:color(display-p3 0.0641 0.0641 0.0641);stop-opacity:1;"/>
</linearGradient>
<linearGradient id="paint1_linear_263_737" x1="573.469" y1="241.906" x2="573.469" y2="542.899" gradientUnits="userSpaceOnUse">
<stop stop-color="white" stop-opacity="0.12" style="stop-color:white;stop-opacity:0.12;"/>
<stop offset="1" stop-color="#E0DDDD" style="stop-color:#E0DDDD;stop-color:color(display-p3 0.8792 0.8682 0.8682);stop-opacity:1;"/>
</linearGradient>
<linearGradient id="paint2_linear_263_737" x1="1004.94" y1="445.79" x2="1004.94" y2="561.769" gradientUnits="userSpaceOnUse">
<stop stop-color="#131313" style="stop-color:#131313;stop-color:color(display-p3 0.0727 0.0727 0.0727);stop-opacity:1;"/>
<stop offset="1" stop-color="#101010" style="stop-color:#101010;stop-color:color(display-p3 0.0641 0.0641 0.0641);stop-opacity:1;"/>
</linearGradient>
<linearGradient id="paint3_linear_263_737" x1="1004.94" y1="445.79" x2="1004.94" y2="561.769" gradientUnits="userSpaceOnUse">
<stop stop-color="white" stop-opacity="0.12" style="stop-color:white;stop-opacity:0.12;"/>
<stop offset="1" stop-color="#E0DDDD" style="stop-color:#E0DDDD;stop-color:color(display-p3 0.8792 0.8682 0.8682);stop-opacity:1;"/>
</linearGradient>
<linearGradient id="paint4_linear_263_737" x1="287.203" y1="347.299" x2="287.203" y2="627.122" gradientUnits="userSpaceOnUse">
<stop stop-color="#131313" style="stop-color:#131313;stop-color:color(display-p3 0.0727 0.0727 0.0727);stop-opacity:1;"/>
<stop offset="1" stop-color="#101010" style="stop-color:#101010;stop-color:color(display-p3 0.0641 0.0641 0.0641);stop-opacity:1;"/>
</linearGradient>
<linearGradient id="paint5_linear_263_737" x1="287.203" y1="347.299" x2="287.203" y2="627.122" gradientUnits="userSpaceOnUse">
<stop stop-color="white" stop-opacity="0.12" style="stop-color:white;stop-opacity:0.12;"/>
<stop offset="1" stop-color="#E0DDDD" style="stop-color:#E0DDDD;stop-color:color(display-p3 0.8792 0.8682 0.8682);stop-opacity:1;"/>
</linearGradient>
<linearGradient id="paint6_linear_263_737" x1="772.52" y1="90.0288" x2="772.52" y2="362.963" gradientUnits="userSpaceOnUse">
<stop stop-color="#131313" style="stop-color:#131313;stop-color:color(display-p3 0.0727 0.0727 0.0727);stop-opacity:1;"/>
<stop offset="1" stop-color="#101010" style="stop-color:#101010;stop-color:color(display-p3 0.0641 0.0641 0.0641);stop-opacity:1;"/>
</linearGradient>
<linearGradient id="paint7_linear_263_737" x1="772.52" y1="90.0288" x2="772.52" y2="362.963" gradientUnits="userSpaceOnUse">
<stop stop-color="white" stop-opacity="0.12" style="stop-color:white;stop-opacity:0.12;"/>
<stop offset="1" stop-color="#E0DDDD" style="stop-color:#E0DDDD;stop-color:color(display-p3 0.8792 0.8682 0.8682);stop-opacity:1;"/>
</linearGradient>
<linearGradient id="paint8_linear_263_737" x1="413.077" y1="75.3013" x2="413.077" y2="149.859" gradientUnits="userSpaceOnUse">
<stop stop-color="#131313" style="stop-color:#131313;stop-color:color(display-p3 0.0727 0.0727 0.0727);stop-opacity:1;"/>
<stop offset="1" stop-color="#101010" style="stop-color:#101010;stop-color:color(display-p3 0.0641 0.0641 0.0641);stop-opacity:1;"/>
</linearGradient>
<linearGradient id="paint9_linear_263_737" x1="413.077" y1="75.3013" x2="413.077" y2="149.859" gradientUnits="userSpaceOnUse">
<stop stop-color="white" stop-opacity="0.12" style="stop-color:white;stop-opacity:0.12;"/>
<stop offset="1" stop-color="#E0DDDD" style="stop-color:#E0DDDD;stop-color:color(display-p3 0.8792 0.8682 0.8682);stop-opacity:1;"/>
</linearGradient>
<linearGradient id="paint10_linear_263_737" x1="170.304" y1="108.898" x2="170.304" y2="366.63" gradientUnits="userSpaceOnUse">
<stop stop-color="#131313" style="stop-color:#131313;stop-color:color(display-p3 0.0727 0.0727 0.0727);stop-opacity:1;"/>
<stop offset="1" stop-color="#101010" style="stop-color:#101010;stop-color:color(display-p3 0.0641 0.0641 0.0641);stop-opacity:1;"/>
</linearGradient>
<linearGradient id="paint11_linear_263_737" x1="170.304" y1="108.898" x2="170.304" y2="366.63" gradientUnits="userSpaceOnUse">
<stop stop-color="white" stop-opacity="0.12" style="stop-color:white;stop-opacity:0.12;"/>
<stop offset="1" stop-color="#E0DDDD" style="stop-color:#E0DDDD;stop-color:color(display-p3 0.8792 0.8682 0.8682);stop-opacity:1;"/>
</linearGradient>
</defs>
</svg>
