<svg width="198" height="22" viewBox="0 0 198 22" fill="none" xmlns="http://www.w3.org/2000/svg">
<g clip-path="url(#clip0_31_970)">
<path d="M0.0367347 10.535C0.0367347 9.25129 0.0367347 7.92332 0 6.72815H1.98367C2.02041 7.1708 2.09388 8.23318 2.09388 8.98569C2.6449 7.65773 3.67347 6.37402 5.58367 6.37402C7.27347 6.37402 8.44898 7.4364 8.92653 9.02996C9.55102 7.61346 10.6898 6.37402 12.7469 6.37402C14.6939 6.37402 16.5306 7.79052 16.5306 11.7744V21.4686H14.5102V12.0843C14.5102 10.4022 13.9959 8.5873 12.1592 8.5873C10.2122 8.5873 9.33061 10.4022 9.33061 13.0139V21.4686H7.3102V12.1728C7.3102 10.2694 6.86939 8.5873 4.99592 8.5873C3.08571 8.5873 2.16735 10.4907 2.16735 13.2795V21.4686H0.0367347V10.535Z" fill="#888B8B" style="fill:#888B8B;fill:color(display-p3 0.5333 0.5451 0.5451);fill-opacity:1;"/>
<path d="M21.0122 14.696C21.049 17.706 22.3347 19.8308 24.502 19.8308C26.5224 19.8308 27.1837 18.5913 27.5877 17.529H29.8286C29.3143 19.4324 27.9551 21.9555 24.4286 21.9555C20.4245 21.9555 18.7714 18.193 18.7714 14.3861C18.7714 10.0038 20.6816 6.50684 24.5755 6.50684C28.6898 6.50684 30.049 10.3137 30.049 13.4565C30.049 13.9435 30.049 14.2976 30.0122 14.696H21.0122ZM27.8449 12.9253C27.8082 10.4907 26.7796 8.54305 24.6122 8.54305C22.3347 8.54305 21.3796 10.3579 21.1224 12.9253H27.8449Z" fill="#888B8B" style="fill:#888B8B;fill:color(display-p3 0.5333 0.5451 0.5451);fill-opacity:1;"/>
<path d="M42.7593 0.132812V17.3079C42.7593 18.6801 42.7593 20.0523 42.796 21.4688H40.8123C40.7389 21.0704 40.7021 19.9638 40.7021 19.3883C40.1144 20.9376 38.9021 21.823 36.9185 21.823C33.796 21.823 31.9225 18.7244 31.9225 14.2535C31.9225 9.73845 33.9797 6.37426 37.3225 6.37426C39.4532 6.37426 40.4083 7.43664 40.7021 8.27768V0.132812H42.7593ZM37.3225 19.6539C40.1144 19.6539 40.7756 17.0865 40.7756 13.8551C40.7756 10.5795 40.1879 8.49901 37.5062 8.49901C35.3756 8.49901 34.0532 10.5795 34.0532 14.1207C34.0532 17.7063 35.4491 19.6539 37.3225 19.6539Z" fill="#888B8B" style="fill:#888B8B;fill:color(display-p3 0.5333 0.5451 0.5451);fill-opacity:1;"/>
<path d="M45.9918 4.33817V1.19531H48.0856V4.38244H45.9918V4.33817ZM45.9918 6.63998H48.0856V21.3804H45.9918V6.63998Z" fill="#888B8B" style="fill:#888B8B;fill:color(display-p3 0.5333 0.5451 0.5451);fill-opacity:1;"/>
<path d="M61.1634 16.9535C60.6491 19.4766 59.2164 21.8227 56.1307 21.8227C52.7511 21.8227 50.6572 18.9012 50.6572 14.1648C50.6572 10.0038 52.6042 6.37402 56.2776 6.37402C59.8042 6.37402 61.0532 9.38408 61.1634 11.2875H59.0695C58.7756 9.82674 58.0042 8.49877 56.2042 8.49877C54.0368 8.49877 52.8246 10.7563 52.8246 14.0762C52.8246 17.4404 54.0001 19.698 56.1307 19.698C57.6368 19.698 58.5552 18.7241 59.0695 16.9535H61.1634Z" fill="#888B8B" style="fill:#888B8B;fill:color(display-p3 0.5333 0.5451 0.5451);fill-opacity:1;"/>
<path d="M76.592 21.4686V1.37207H78.6859V21.4686H76.592Z" fill="#888B8B" style="fill:#888B8B;fill:color(display-p3 0.5333 0.5451 0.5451);fill-opacity:1;"/>
<path d="M83.3144 17.2635C83.6818 18.8571 84.7471 19.8309 86.5103 19.8309C88.4205 19.8309 89.192 18.9014 89.192 17.5734C89.192 16.1569 88.6042 15.5372 86.0695 14.8732C82.3226 13.8551 81.5511 12.5271 81.5511 10.5352C81.5511 8.45467 82.9103 6.41846 86.2899 6.41846C89.6695 6.41846 91.0654 8.63174 91.2491 10.668H89.0818C88.8613 9.73838 88.2369 8.41041 86.2164 8.41041C84.3797 8.41041 83.792 9.38425 83.792 10.3581C83.792 11.4647 84.343 11.9959 86.7307 12.6599C90.7348 13.7223 91.5062 15.2273 91.5062 17.3963C91.5062 19.9637 89.6695 21.8671 86.4001 21.8671C83.0205 21.8671 81.3307 19.9637 81.0001 17.3078H83.3144V17.2635Z" fill="white" style="fill:white;fill-opacity:1;"/>
<path d="M94.3713 6.72852C95.7672 13.6339 96.5387 17.6179 96.7591 19.1229H96.7958C96.9795 17.7506 97.7877 14.0766 99.3673 6.72852H101.241C102.967 15.0504 103.518 17.4851 103.665 18.813H103.702C103.996 17.2637 104.437 15.0504 106.163 6.72852H108.11L104.694 21.469H102.6C101.535 16.1128 100.433 11.1108 100.212 9.51725H100.175C99.9917 11.1108 98.9999 15.6259 97.7509 21.469H95.5836L92.3509 6.72852H94.3713Z" fill="white" style="fill:white;fill-opacity:1;"/>
<path d="M110.534 4.338V1.15088H112.628V4.338H110.534ZM110.534 6.72834H112.628V21.4688H110.534V6.72834Z" fill="white" style="fill:white;fill-opacity:1;"/>
<path d="M114.539 7.03839H116.449V2.74463H118.322V7.03839H120.747V9.07461H118.322V17.5293C118.322 18.9458 118.579 19.6541 119.571 19.6541C119.828 19.6541 120.232 19.6098 120.526 19.5213V21.3804C120.086 21.6018 119.424 21.646 118.873 21.646C117.147 21.646 116.412 20.4951 116.412 18.1048V9.03034H114.502V7.03839H114.539Z" fill="white" style="fill:white;fill-opacity:1;"/>
<path d="M121.923 19.6095L129.306 9.07429H122.327V6.90527H131.841V9.03002L124.531 19.521H132.135L132.062 21.69H121.886V19.6095H121.923Z" fill="white" style="fill:white;fill-opacity:1;"/>
<path d="M135.771 14.5192C135.808 17.5293 137.094 19.654 139.261 19.654C141.282 19.654 141.906 18.4146 142.31 17.3522H144.551C144.037 19.2556 142.678 21.7788 139.188 21.7788C135.184 21.7788 133.567 18.0162 133.567 14.2094C133.567 9.82706 135.478 6.33008 139.335 6.33008C143.449 6.33008 144.771 10.1369 144.771 13.2798C144.771 13.7667 144.771 14.1208 144.735 14.5192H135.771ZM142.531 12.7486C142.494 10.314 141.465 8.3663 139.298 8.3663C137.057 8.3663 136.065 10.1812 135.845 12.7486H142.531Z" fill="white" style="fill:white;fill-opacity:1;"/>
<path d="M147.71 10.7124C147.71 8.63189 147.673 7.48098 147.673 6.6842H149.657C149.694 7.08259 149.731 8.2335 149.731 9.69426C150.318 7.70231 151.714 6.41861 153.661 6.33008V8.85322C151.273 8.94175 149.731 10.5353 149.731 14.2536V21.4246H147.71V10.7124Z" fill="white" style="fill:white;fill-opacity:1;"/>
<path d="M155.975 21.469V1.46094H158.069V21.469H155.975Z" fill="white" style="fill:white;fill-opacity:1;"/>
<path d="M174.563 10.4466C174.563 9.16292 174.563 7.87922 174.527 6.72832H176.584C176.657 7.17097 176.694 8.72027 176.694 9.16292C177.171 7.92349 178.163 6.41846 180.514 6.41846C182.829 6.41846 184.592 8.10055 184.592 12.0402V21.513H182.461V12.3058C182.461 10.0482 181.727 8.58747 179.89 8.58747C177.576 8.58747 176.657 10.7122 176.657 13.678V21.4688H174.527V10.4466H174.563Z" fill="white" style="fill:white;fill-opacity:1;"/>
<path d="M197.964 0V17.2636C197.964 18.6358 197.964 20.008 198 21.4245H195.906C195.833 21.0262 195.796 19.9195 195.796 19.2998C195.172 20.8491 193.923 21.7344 191.866 21.7344C188.633 21.7344 186.649 18.6358 186.649 14.1207C186.649 9.56137 188.817 6.19718 192.27 6.19718C194.51 6.19718 195.466 7.25956 195.796 8.1006V0H197.964ZM192.306 19.6539C195.208 19.6539 195.906 17.0865 195.906 13.8551C195.906 10.5352 195.319 8.45473 192.49 8.45473C190.249 8.45473 188.89 10.5352 188.89 14.1207C188.89 17.7062 190.323 19.6539 192.306 19.6539Z" fill="white" style="fill:white;fill-opacity:1;"/>
<path d="M73.102 19.6982C73.102 19.2998 73.0653 18.8571 73.0653 18.4144V11.3762C73.0653 8.0563 71.3388 6.55127 68.2163 6.55127C64.5429 6.55127 63.4775 8.89735 63.2939 10.9336H65.4245C65.6449 9.78266 66.0122 8.58749 68.1429 8.58749C70.5306 8.58749 70.8612 10.1368 70.8612 11.4647V12.7042H68.6939C64.9102 12.7042 62.6694 14.2092 62.6694 17.4849C62.6694 19.7424 63.9551 22 66.9673 22C69.4286 22 70.4571 20.672 70.898 19.7424C70.9347 20.6277 71.0082 21.336 71.0816 21.6458H72.8816C73.249 21.7786 74.2041 21.4688 74.2041 21.4688V19.6982H73.102ZM70.9347 14.9175C70.9347 17.5734 70.5306 19.9637 67.4816 19.9637C65.902 19.9637 64.9837 18.8571 64.9837 17.3078C64.9837 15.2273 66.3429 14.4305 68.8775 14.4305H70.9347V14.9175Z" fill="#888B8B" style="fill:#888B8B;fill:color(display-p3 0.5333 0.5451 0.5451);fill-opacity:1;"/>
<path d="M170.78 19.2996C170.78 18.9455 170.743 18.5913 170.743 18.1929V11.199C170.743 7.83479 169.053 6.37402 165.968 6.37402C162.368 6.37402 161.302 8.7201 161.119 10.7121H163.212C163.433 9.56115 163.8 8.36598 165.894 8.36598C168.245 8.36598 168.576 9.91527 168.576 11.2432V12.4827H166.445C162.735 12.4827 160.531 13.9877 160.531 17.2634C160.531 19.5209 161.78 21.7785 164.755 21.7785C167.18 21.7785 168.172 20.4505 168.613 19.5209C168.649 20.4062 168.723 21.1145 168.796 21.4243H170.853C170.89 21.4243 171.588 21.4686 171.037 21.3801C171.772 21.5129 172.102 21.4243 172.102 21.4243V19.6537C171.478 19.698 171 19.5209 170.78 19.2996ZM168.613 14.7402C168.613 17.3962 168.208 19.7865 165.196 19.7865C163.653 19.7865 162.772 18.6799 162.772 17.1306C162.772 15.0501 164.094 14.2533 166.592 14.2533H168.613V14.7402Z" fill="white" style="fill:white;fill-opacity:1;"/>
</g>
<defs>
<clipPath id="clip0_31_970">
<rect width="198" height="22" fill="white" style="fill:white;fill-opacity:1;"/>
</clipPath>
</defs>
</svg>
