<svg width="32" height="32" viewBox="0 0 32 32" fill="none" xmlns="http://www.w3.org/2000/svg">
<path d="M30.1369 23.5C31.3262 21.263 32 18.7102 32 16C32 13.2898 31.3262 10.737 30.1369 8.5H1.8631C0.673833 10.737 0 13.2898 0 16C0 18.7102 0.673833 21.263 1.8631 23.5H30.1369Z" fill="#0052B4" style="fill:#0052B4;fill:color(display-p3 0.0000 0.3216 0.7059);fill-opacity:1;"/>
<path d="M31.0296 21.5C28.7868 27.6271 22.9041 32 16 32C9.09595 32 3.21322 27.6271 0.970398 21.5H31.0296Z" fill="#D80027" style="fill:#D80027;fill:color(display-p3 0.8471 0.0000 0.1529);fill-opacity:1;"/>
<path d="M31.0296 10.5H0.970398C3.21322 4.37286 9.09595 0 16 0C22.9041 0 28.7868 4.37286 31.0296 10.5Z" fill="#EEEEEE" style="fill:#EEEEEE;fill:color(display-p3 0.9333 0.9333 0.9333);fill-opacity:1;"/>
</svg>
