<svg width="32" height="32" viewBox="0 0 32 32" fill="none" xmlns="http://www.w3.org/2000/svg">
<path d="M31.4501 20.1739C31.8087 18.8433 32 17.444 32 16L31.4501 11.8261C31.049 10.3378 30.4386 8.93529 29.6524 7.65219L25.9612 3.47825C23.2297 1.30242 19.7702 0.00160276 16.007 0H15.993C12.2298 0.0016021 8.77031 1.30242 6.0388 3.47825L2.34763 7.65219C1.5614 8.93529 0.95097 10.3378 0.549874 11.8261L0 16L1.50742e-06 16.007C0.000620504 17.4485 0.191863 18.8454 0.549887 20.1739L2.34764 24.3478C3.32689 25.9459 4.57887 27.3588 6.03881 28.5218L16 32L25.9612 28.5218C27.4211 27.3588 28.6731 25.9459 29.6524 24.3478L31.4501 20.1739Z" fill="#EEEEEE" style="fill:#EEEEEE;fill:color(display-p3 0.9333 0.9333 0.9333);fill-opacity:1;"/>
<path d="M31.4501 11.8259C31.8087 13.1565 32 14.5558 32 15.9998H0C0 14.5558 0.191282 13.1565 0.549889 11.8259H31.4501Z" fill="#D80027" style="fill:#D80027;fill:color(display-p3 0.8471 0.0000 0.1529);fill-opacity:1;"/>
<path d="M25.9612 3.47803C27.4211 4.64096 28.6731 6.05387 29.6524 7.65196H2.34764C3.3269 6.05387 4.57888 4.64096 6.03882 3.47803H25.9612Z" fill="#D80027" style="fill:#D80027;fill:color(display-p3 0.8471 0.0000 0.1529);fill-opacity:1;"/>
<path d="M29.6524 24.3476C30.4386 23.0645 31.049 21.662 31.4501 20.1737H0.549873C0.950968 21.662 1.5614 23.0645 2.34763 24.3476H29.6524Z" fill="#D80027" style="fill:#D80027;fill:color(display-p3 0.8471 0.0000 0.1529);fill-opacity:1;"/>
<path d="M25.9612 28.5215H6.0388C8.76869 30.6961 12.2257 31.9966 15.9863 31.9998H16.0137C19.7743 31.9966 23.2313 30.6961 25.9612 28.5215Z" fill="#D80027" style="fill:#D80027;fill:color(display-p3 0.8471 0.0000 0.1529);fill-opacity:1;"/>
<path d="M0 15.3491C0.341513 6.81431 7.36847 0 15.987 0C15.9913 0 15.9957 1.72311e-06 16 5.16869e-06V16H0V15.3491Z" fill="#0052B4" style="fill:#0052B4;fill:color(display-p3 0.0000 0.3216 0.7059);fill-opacity:1;"/>
<path d="M3.33902 12.458H5.08218L3.67203 13.4834L4.21109 15.1416L2.79996 14.1172L1.3898 15.1416L1.92789 13.4834L0.517731 12.458H2.26089L2.79996 10.7998L3.33902 12.458ZM8.53922 12.458H10.2824L8.87222 13.4834L9.41031 15.1416L8.00015 14.1172L6.58902 15.1416L7.12808 13.4834L5.71793 12.458H7.46109L8.00015 10.7998L8.53922 12.458ZM13.7384 12.458H15.4826L14.0714 13.4834L14.6105 15.1416L13.2003 14.1172L11.7892 15.1416L12.3283 13.4834L10.9171 12.458H12.6613L13.2003 10.7998L13.7384 12.458ZM3.33902 7.25879H5.08218L3.67203 8.2832L4.21109 9.94141L2.79996 8.91699L1.3898 9.94141L1.84683 8.53125C2.21654 7.8321 2.63722 7.1642 3.10269 6.53125L3.33902 7.25879ZM8.53922 7.25879H10.2824L8.87222 8.2832L9.41031 9.94141L8.00015 8.91699L6.58902 9.94141L7.12808 8.2832L5.71793 7.25879H7.46109L8.00015 5.59961L8.53922 7.25879ZM13.7384 7.25879H15.4826L14.0714 8.2832L14.6105 9.94141L13.2003 8.91699L11.7892 9.94141L12.3283 8.2832L10.9171 7.25879H12.6613L13.2003 5.59961L13.7384 7.25879ZM8.53922 2.05859H10.2824L8.87222 3.08301L9.41031 4.74121L8.00015 3.7168L6.58902 4.74121L7.12808 3.08301L6.84488 2.87695C7.36763 2.51158 7.9128 2.17595 8.47867 1.87402L8.53922 2.05859ZM13.7384 2.05859H15.4826L14.0714 3.08301L14.6105 4.74121L13.2003 3.7168L11.7892 4.74121L12.3283 3.08301L10.9171 2.05859H12.6613L13.2003 0.400391L13.7384 2.05859Z" fill="#EEEEEE" style="fill:#EEEEEE;fill:color(display-p3 0.9333 0.9333 0.9333);fill-opacity:1;"/>
</svg>
